<svg width="38" height="39" viewBox="0 0 38 39" fill="none" xmlns="http://www.w3.org/2000/svg">
<path fill-rule="evenodd" clip-rule="evenodd" d="M0.0529785 19.4628C0.0529785 30.7396 7.4449 38.0775 19.3691 38.0775C30.6458 38.0775 37.8219 32.4661 37.8219 23.2937C37.8219 22.8467 37.4596 22.4843 37.0126 22.4843H29.6207C29.1737 22.4843 28.8113 22.8467 28.8113 23.2937C28.8113 28.0418 26.1135 30.3079 19.531 30.3079C11.5995 30.3079 7.84428 27.5782 7.84428 19.5388C7.84428 11.4995 11.5995 8.61775 19.531 8.61775C26.1135 8.61775 28.8113 10.8839 28.8113 15.632C28.8113 16.079 29.1737 16.4413 29.6207 16.4413H37.0126C37.4596 16.4413 37.8219 16.079 37.8219 15.632C37.8219 6.45953 30.5919 0.848145 19.3691 0.848145C7.4449 0.848145 0.0529785 8.18611 0.0529785 19.4628Z" fill="#294F74"/>
<path d="M13.6233 19.4629C13.6233 15.5434 15.0701 14.1755 18.9369 14.1755C22.8038 14.1755 24.2506 15.5434 24.2506 19.4629C24.2506 23.3823 22.8038 24.7502 18.9369 24.7502C15.0701 24.7502 13.6233 23.3823 13.6233 19.4629Z" fill="#294F74"/>
</svg>
