<svg width="362" height="221" viewBox="0 0 362 221" fill="none" xmlns="http://www.w3.org/2000/svg">
<path d="M139.534 134.974L0.813965 228.837H361.188L221.979 134.974H264.983L181.011 113.599L96.0213 134.974H139.534Z" fill="white"/>
<path d="M96.3525 153.163V134.946H139.88L112.72 153.163H96.3525Z" fill="#E7E7E7"/>
<path d="M265.31 153.163V134.946H221.783L248.942 153.163H265.31Z" fill="#E7E7E7"/>
<g opacity="0.1" filter="url(#filter0_f_0_1)">
<path fill-rule="evenodd" clip-rule="evenodd" d="M15.9808 44.9622C17.118 43.7984 18.978 43.7984 20.1146 44.9622L30.5069 55.5961C31.6429 56.7587 31.6429 58.6635 30.5069 59.8273L23.2384 67.2644C22.7068 67.8084 21.9721 68.1446 21.1614 68.1446H14.9353C14.1967 68.1446 13.5227 67.866 13.0056 67.4062L5.59418 59.8215C4.45819 58.6583 4.45819 56.7548 5.59418 55.591L15.9808 44.9622ZM19.8254 64.3752L18.7888 65.436C18.7128 65.5138 18.6078 65.5617 18.492 65.5617H17.604C17.4984 65.5617 17.4028 65.5222 17.3281 65.4561L16.2712 64.3739C16.1099 64.2087 16.1099 63.9374 16.2712 63.7709L17.7528 62.2547C17.9154 62.0883 18.1812 62.0883 18.3426 62.2547L19.8254 63.7716C19.9881 63.9374 19.9881 64.2087 19.8254 64.3752ZM19.8254 58.0132L15.6802 62.2554C15.6036 62.3331 15.4991 62.381 15.384 62.381H14.4954C14.3903 62.381 14.2935 62.3415 14.2201 62.2755L13.1626 61.1939C13.0006 61.0274 13.0006 60.7554 13.1626 60.5902L17.7528 55.8928C17.9154 55.727 18.1812 55.727 18.3432 55.8928L19.8254 57.4096C19.9881 57.5754 19.9881 57.8474 19.8254 58.0132ZM19.8254 51.6513L12.5721 59.0741C12.4949 59.1518 12.3905 59.1997 12.2753 59.1997H11.3874C11.2824 59.1997 11.1855 59.1602 11.1121 59.0942L10.054 58.0119C9.89196 57.8468 9.89196 57.5747 10.054 57.4083L17.7528 49.5302C17.9154 49.3637 18.1799 49.3637 18.3426 49.5302L19.8254 51.0476C19.9881 51.2134 19.9881 51.4855 19.8254 51.6513Z" fill="#667085"/>
</g>
<g opacity="0.4" filter="url(#filter1_f_0_1)">
<path fill-rule="evenodd" clip-rule="evenodd" d="M83.6597 68.1445V64.1695H101.585V68.1445H83.6597ZM97.7778 48.2695H87.4656L92.6225 55.3914L97.7778 48.2695ZM105.569 44.2945L92.6225 62.182L79.6763 44.2945H105.569Z" fill="#667085"/>
</g>
<path opacity="0.1" d="M334.712 67.8417C342.909 67.8417 349.555 61.2195 349.555 53.0505C349.555 44.8815 342.909 38.2592 334.712 38.2592C326.514 38.2592 319.869 44.8815 319.869 53.0505C319.869 61.2195 326.514 67.8417 334.712 67.8417Z" fill="#667085"/>
<g opacity="0.4" filter="url(#filter2_f_0_1)">
<path d="M259.513 38.8079L269.113 44.1984C270.453 44.9506 271.282 46.3614 271.282 47.8907V58.5134C271.282 60.0426 270.453 61.4534 269.113 62.2056L259.513 67.5961C258.211 68.3274 256.618 68.3274 255.316 67.5961L245.716 62.2056C244.376 61.4534 243.548 60.0426 243.548 58.5134V47.8907C243.548 46.3614 244.376 44.9506 245.716 44.1984L255.316 38.8079C256.618 38.0766 258.211 38.0766 259.513 38.8079ZM245.148 47.9337V58.5134C245.148 59.4627 245.663 60.3402 246.499 60.8095L255.963 66.1233C256.085 66.1709 256.216 66.1955 256.348 66.1955C256.937 66.1955 257.415 65.7176 257.415 65.1282V56.5768C257.415 55.1832 256.639 53.9054 255.404 53.2625L254.699 52.896C254.533 52.8252 254.369 52.7477 254.208 52.6633L245.148 47.9337ZM255.073 51.717C256.774 52.6047 258.06 52.6047 259.761 51.717L268.952 46.5541C268.725 46.0356 268.333 45.5932 267.819 45.3048L258.73 40.2041C257.914 39.7459 256.915 39.7459 256.099 40.2041L247.027 45.3048C246.514 45.5932 246.121 46.0356 245.895 46.5541L255.073 51.717ZM257.415 41.9951C259.415 41.9951 261.047 42.9786 261.144 44.2145L261.148 46.3311C261.148 47.6206 259.477 48.6659 257.415 48.6659C255.353 48.6659 253.681 47.6206 253.681 46.3311V44.2145C253.782 42.9786 255.415 41.9951 257.415 41.9951ZM257.415 45.7307C259.147 45.7307 260.551 45.0283 260.551 44.1618C260.551 43.2953 259.147 42.5928 257.415 42.5928C255.683 42.5928 254.279 43.2953 254.279 44.1618C254.279 45.0283 255.683 45.7307 257.415 45.7307Z" fill="#667085"/>
</g>
<g filter="url(#filter3_d_0_1)">
<circle cx="181.001" cy="42.2107" r="37.7102" fill="white"/>
</g>
<path fill-rule="evenodd" clip-rule="evenodd" d="M156.157 43.6659C156.157 58.495 165.878 68.1445 181.558 68.1445C196.387 68.1445 205.824 60.7654 205.824 48.7036C205.824 48.1158 205.347 47.6393 204.759 47.6393H195.039C194.451 47.6393 193.975 48.1158 193.975 48.7036C193.975 54.9473 190.427 57.9273 181.771 57.9273C171.341 57.9273 166.403 54.3378 166.403 43.7659C166.403 33.194 171.341 29.4046 181.771 29.4046C190.427 29.4046 193.975 32.3845 193.975 38.6283C193.975 39.2161 194.451 39.6926 195.039 39.6926H204.759C205.347 39.6926 205.824 39.2161 205.824 38.6283C205.824 26.5665 196.316 19.1874 181.558 19.1874C165.878 19.1874 156.157 28.8369 156.157 43.6659Z" fill="#294F74"/>
<path d="M174.002 43.6658C174.002 38.5117 175.904 36.713 180.989 36.713C186.074 36.713 187.977 38.5117 187.977 43.6658C187.977 48.82 186.074 50.6187 180.989 50.6187C175.904 50.6187 174.002 48.82 174.002 43.6658Z" fill="#294F74"/>
<defs>
<filter id="filter0_f_0_1" x="0.540881" y="39.888" width="35.0193" height="32.4578" filterUnits="userSpaceOnUse" color-interpolation-filters="sRGB">
<feFlood flood-opacity="0" result="BackgroundImageFix"/>
<feBlend mode="normal" in="SourceGraphic" in2="BackgroundImageFix" result="shape"/>
<feGaussianBlur stdDeviation="2.10065" result="effect1_foregroundBlur_0_1"/>
</filter>
<filter id="filter1_f_0_1" x="75.475" y="40.0932" width="34.2952" height="32.2526" filterUnits="userSpaceOnUse" color-interpolation-filters="sRGB">
<feFlood flood-opacity="0" result="BackgroundImageFix"/>
<feBlend mode="normal" in="SourceGraphic" in2="BackgroundImageFix" result="shape"/>
<feGaussianBlur stdDeviation="2.10065" result="effect1_foregroundBlur_0_1"/>
</filter>
<filter id="filter2_f_0_1" x="239.347" y="34.0582" width="36.1363" height="38.2877" filterUnits="userSpaceOnUse" color-interpolation-filters="sRGB">
<feFlood flood-opacity="0" result="BackgroundImageFix"/>
<feBlend mode="normal" in="SourceGraphic" in2="BackgroundImageFix" result="shape"/>
<feGaussianBlur stdDeviation="2.10065" result="effect1_foregroundBlur_0_1"/>
</filter>
<filter id="filter3_d_0_1" x="135.186" y="0.596391" width="91.6312" height="91.6312" filterUnits="userSpaceOnUse" color-interpolation-filters="sRGB">
<feFlood flood-opacity="0" result="BackgroundImageFix"/>
<feColorMatrix in="SourceAlpha" type="matrix" values="0 0 0 0 0 0 0 0 0 0 0 0 0 0 0 0 0 0 127 0" result="hardAlpha"/>
<feOffset dy="4.20131"/>
<feGaussianBlur stdDeviation="4.0527"/>
<feComposite in2="hardAlpha" operator="out"/>
<feColorMatrix type="matrix" values="0 0 0 0 0 0 0 0 0 0 0 0 0 0 0 0 0 0 0.2 0"/>
<feBlend mode="normal" in2="BackgroundImageFix" result="effect1_dropShadow_0_1"/>
<feBlend mode="normal" in="SourceGraphic" in2="effect1_dropShadow_0_1" result="shape"/>
</filter>
</defs>
</svg>
