<svg width="402" height="194" viewBox="0 0 402 194" fill="none" xmlns="http://www.w3.org/2000/svg">
<path fill-rule="evenodd" clip-rule="evenodd" d="M642.545 196.698L586.536 161.095H480.77L519.48 195.601L518.695 196.698H642.545ZM545.538 131.211L587.452 157.854H688.13L634.961 131.211H545.538ZM540.439 127.969L501.808 103.413L579.489 103.413L628.493 127.969H540.439ZM465.045 80.0443L496.708 100.171L573.02 100.171L532.855 80.0443L465.045 80.0443ZM459.946 76.8028L435.242 61.0995L495.049 61.0995L526.386 76.8028L459.946 76.8028ZM405.431 42.1497L430.143 57.858L488.58 57.858L457.233 42.1497L405.431 42.1497ZM400.331 38.9082L375.627 23.2049L419.427 23.2049L450.764 38.9082L400.331 38.9082ZM345.816 4.25504L370.528 19.9634L412.958 19.9634L381.611 4.25503L345.816 4.25504ZM340.717 1.01353L339.491 0.234741L339.094 1.01353L-174.163 1.01359L-174.167 0.993781L-174.238 1.01359L-309.246 1.01361L-309.289 0.659838L-310.98 1.01361L-684.135 1.01365V1.51148L-834.741 19.9635H-837.948V20.3564L-989.369 38.9084H-991.422V39.1598L-1144.04 57.8582H-1147.23V58.2489L-1298.67 76.803H-1301.05V77.0945L-1489.4 100.172H-1492.69V100.574L-1716.29 127.969H-1717.16V128.076L-1960.21 157.854H-1965.69V158.526L-2277.26 196.698H-2277.45V196.722L-2277.51 196.729L-2277.45 197.503V199.94H-2277.28L-2277.28 199.962L-2277.09 199.94H-2150.15L-2150.13 200.171L-2148.34 199.94H-2023.03L-2023 200.343L-2020.04 199.94H-1769.21L-1769.19 200.206L-1767.45 199.94H-1642.08L-1642.04 200.384L-1639.33 199.94H-1387.7L-1387.7 199.944L-1387.67 199.94H-1247.32L-1247.29 200.17L-1246.19 199.94H-1136.63L-1136.53 200.696L-1133.16 199.94H-1008.03L-1007.92 200.667L-1004.99 199.94H-879.488L-879.405 200.453L-877.561 199.94H-625.724L-625.713 199.995L-625.559 199.94H-498.706L-498.519 200.503L-497.159 199.94H-370.028L-369.665 200.839L-367.874 199.94H-242.903L-242.472 200.77L-241.188 199.94H-115.421L-115.038 200.466L-114.457 199.94H897.758L898.767 200.36L898.869 199.94H1025.1L1025.66 200.141L1025.71 199.94H1151.3L1152.42 200.287L1152.48 199.94H1278.14L1279.42 200.292L1279.47 199.94H1405.86L1406.4 200.072L1406.42 199.94H1531.76L1533.73 200.384L1533.79 199.94H1660.67L1660.99 200.006L1661 199.94H1787.08L1788.14 200.141L1788.16 199.94H1915.39L1915.45 199.951L1915.45 199.94H2551.6L2552.03 199.997L2552.03 199.94H2678.91L2679.27 199.985L2679.27 199.94H2679.51V196.766L2679.51 196.753L2679.51 196.698H2679.08L2376.38 158.536V157.854H2370.97L2135.03 128.107V127.969H2133.93L1728.16 76.8108V76.8027H1728.09L1127.06 1.02719V1.01344H1126.95L1125.9 0.880862L1125.89 1.01344L1080.33 1.01345L1079.41 0.891542L1079.4 1.01345L987.39 1.01346L986.455 0.886613L986.445 1.01346L940.606 1.01346L939.977 0.922831L939.969 1.01346L894.609 1.01347L893.523 0.847321L893.508 1.01347L848.18 1.01347L847.045 0.827963L847.028 1.01347L801.239 1.01348L800.565 0.895099L800.553 1.01348L754.639 1.01349L754.102 0.911658L754.091 1.01349L707.919 1.01349L707.629 0.953982L707.622 1.01349L661.725 1.0135L661.176 0.890197L661.16 1.0135L615.284 1.0135L614.715 0.872715L614.695 1.0135L568.761 1.01351L568.265 0.876633L568.243 1.01351L522.241 1.01351L521.802 0.876979L521.777 1.01351L475.717 1.01352L475.369 0.88982L475.344 1.01352L428.533 1.01352L428.472 0.988091L428.466 1.01352L382.354 1.01353L381.574 0.622656L381.417 1.01353L340.717 1.01353ZM427.989 4.25503L388.823 4.25503L420.17 19.9634L465.699 19.9634L427.989 4.25503ZM436.315 4.25503L474.025 19.9634L519.388 19.9633L475.249 4.25502L436.315 4.25503ZM521.83 4.25502L484.825 4.25502L528.964 19.9633L572.36 19.9633L521.83 4.25502ZM532.668 4.25502L583.198 19.9633L625.37 19.9633L568.396 4.25501L532.668 4.25502ZM580.518 4.25501L637.492 19.9633L678.446 19.9633L614.956 4.25501L580.518 4.25501ZM628.386 4.255L691.875 19.9633L731.291 19.9633L661.426 4.255L628.386 4.255ZM676.142 4.255L746.007 19.9633L784.148 19.9633L707.646 4.255L676.142 4.255ZM723.706 4.25499L800.208 19.9633L837.285 19.9633L754.387 4.25499L723.706 4.25499ZM771.746 4.25499L854.644 19.9633L890.461 19.9633L801.005 4.25498L771.746 4.25499ZM819.699 4.25498L909.154 19.9633L944.026 19.9633L847.962 4.25498L819.699 4.25498ZM868.003 4.25498L964.067 19.9633L997.07 19.9633L894.405 4.25497L868.003 4.25498ZM915.794 4.25497L1018.46 19.9633L1049.39 19.9633L940.414 4.25497L915.794 4.25497ZM963.094 4.25497L1072.07 19.9633L1102.94 19.9633L987.209 4.25496L963.094 4.25497ZM1011.27 4.25496L1127 19.9633L1198.27 19.9633L1080.15 4.25495L1011.27 4.25496ZM1104.7 4.25495L1222.82 19.9633L1251.38 19.9633L1126.78 4.25495L1104.7 4.25495ZM-682.312 4.25516L-682.291 4.54718L-808.12 19.9635L-781.142 19.9635L-659.609 4.25515L-682.312 4.25516ZM-634.37 4.25515L-634.37 4.25675L-755.891 19.9635L-726.732 19.9635L-611.765 4.25515L-634.37 4.25515ZM-587.863 4.25514V4.25569L-702.826 19.9635L-672.932 19.9635L-564.048 4.25514L-587.863 4.25514ZM-541.387 4.25514L-650.271 19.9635L-618.326 19.9635L-516.172 4.25514L-541.387 4.25514ZM-494.887 4.25513L-597.041 19.9635L-563.948 19.9635L-468.348 4.25513L-494.887 4.25513ZM-448.401 4.25513L-544.002 19.9635L-509.957 19.9635L-420.585 4.25513L-448.401 4.25513ZM-401.909 4.25512L-491.281 19.9635L-455.631 19.9635L-372.769 4.25512L-401.909 4.25512ZM-355.417 4.25512L-438.28 19.9635L-401.572 19.9635L-326.476 4.25511L-355.417 4.25512ZM-310.702 4.25511L-385.797 19.9635L-346.051 19.9634L-276.066 4.25511L-310.702 4.25511ZM-262.368 4.25511L-262.339 4.48241L-331.311 19.9634L-291.387 19.9634L-227.932 4.2551L-262.368 4.25511ZM-215.861 4.2551L-215.815 4.57821L-277.964 19.9634L-242.382 19.9634L-185.894 4.2551L-215.861 4.2551ZM-173.87 4.2551L-230.358 19.9634L-187.988 19.9634L-137.686 4.25509L-173.87 4.2551ZM-126.894 4.25509L-177.196 19.9634L-133.17 19.9634L-89.3643 4.25509L-126.894 4.25509ZM-80.3906 4.25509L-80.3533 4.43439L-123.659 19.9634L-71.1033 19.9634L-33.1797 4.25508L-80.3906 4.25509ZM-25.8682 4.25508L-25.7305 4.66913L-62.6545 19.9634L-16.5632 19.9634L14.7275 4.25507L-25.8682 4.25508ZM20.1418 4.25507L20.4424 5.001L-9.36279 19.9634L31.2817 19.9634L55.5815 4.25507L20.1418 4.25507ZM60.2517 4.25507L60.5718 4.8716L37.2256 19.9634L79.1868 19.9634L96.5068 4.25507L60.2517 4.25507ZM100.524 4.25507L100.834 4.6809L83.9841 19.9634L127.005 19.9634L137.335 4.25506L100.524 4.25507ZM141.193 4.25506L130.863 19.9634L174.813 19.9634L178.154 4.25506L141.193 4.25506ZM181.464 4.25506L178.123 19.9634L222.643 19.9634L218.994 4.25505L181.464 4.25506ZM222.317 4.25505L225.966 19.9634L269.678 19.9634L259.035 4.25505L222.317 4.25505ZM262.929 4.25505L273.571 19.9634L317.594 19.9634L299.971 4.25504L262.929 4.25505ZM304.814 4.25504L339.801 4.25504L364.512 19.9634L322.437 19.9634L304.814 4.25504ZM457.976 38.9082L426.638 23.2049L473.481 23.2049L511.179 38.9082L457.976 38.9082ZM481.807 23.2049L528.496 23.2049L572.62 38.9082L519.505 38.9082L481.807 23.2049ZM582.196 38.9082L538.072 23.2049L582.787 23.2048L633.301 38.9082L582.196 38.9082ZM644.139 38.9082L593.625 23.2048L637.127 23.2048L694.083 38.9082L644.139 38.9082ZM706.204 38.9082L649.249 23.2048L691.547 23.2048L755.016 38.9082L706.204 38.9082ZM768.445 38.9082L704.976 23.2048L745.708 23.2048L815.551 38.9082L768.445 38.9082ZM830.266 38.9082L760.424 23.2048L799.935 23.2048L876.414 38.9081L830.266 38.9082ZM892.473 38.9081L815.995 23.2048L854.392 23.2048L937.263 38.9081L892.473 38.9081ZM954.622 38.9081L871.75 23.2048L908.921 23.2048L998.348 38.9081L954.622 38.9081ZM1017.04 38.9081L927.614 23.2048L963.849 23.2048L1059.88 38.9081L1017.04 38.9081ZM1079.92 38.9081L983.89 23.2048L1018.26 23.2048L1120.89 38.9081L1079.92 38.9081ZM1142.28 38.9081L1039.65 23.2048L1071.88 23.2048L1180.82 38.9081L1142.28 38.9081ZM1203.5 38.9081L1094.56 23.2048L1126.82 23.2048L1242.51 38.9081L1203.5 38.9081ZM1266.58 38.9081L1150.88 23.2048L1222.64 23.2048L1340.72 38.9081L1266.58 38.9081ZM1365.28 38.9081L1247.19 23.2048L1277.05 23.2048V23.2001L1401.64 38.9081L1365.28 38.9081ZM-962.749 38.9084L-834.577 23.205L-806.221 23.205L-927.716 38.9084L-962.749 38.9084ZM-902.464 38.9083L-780.97 23.205L-750.456 23.205L-865.386 38.9083L-902.464 38.9083ZM-841.48 38.9083L-726.55 23.205L-695.401 23.205L-804.25 38.9083L-841.48 38.9083ZM-781.589 38.9083L-672.74 23.205L-639.406 23.205L-741.527 38.9083L-781.589 38.9083ZM-720.242 38.9083L-618.121 23.205L-583.676 23.205L-679.246 38.9083L-720.242 38.9083ZM-659.3 38.9083L-563.729 23.205L-528.4 23.205L-617.743 38.9083L-659.3 38.9083ZM-599.067 38.9083L-509.723 23.205L-472.731 23.205L-555.567 38.9083L-599.067 38.9083ZM-538.216 38.9083L-455.379 23.205L-417.068 23.205L-492.139 38.9083L-538.216 38.9083ZM-476.365 38.9083L-401.293 23.205L-360.493 23.205L-430.456 38.9083L-476.365 38.9083ZM-415.716 38.9083L-345.753 23.205L-304.481 23.2049L-367.915 38.9083L-415.716 38.9083ZM-354.493 38.9083L-291.058 23.2049L-254.039 23.2049L-310.509 38.9083L-354.493 38.9083ZM-298.484 38.9083L-242.014 23.2049L-198.368 23.2049L-248.654 38.9083L-298.484 38.9083ZM-237.862 38.9083L-187.576 23.2049L-142.209 23.2049L-186.001 38.9083L-237.862 38.9083ZM-176.49 38.9083L-132.699 23.2049L-78.929 23.2049L-116.841 38.9083L-176.49 38.9083ZM-108.392 38.9083L-70.4802 23.2049L-23.0203 23.2049L-54.3013 38.9083L-108.392 38.9083ZM-47.1008 38.9083L-15.8198 23.2049L26.2673 23.2049L1.9751 38.9082L-47.1008 38.9083ZM7.91895 38.9082L32.2112 23.2049L75.6125 23.2049L58.2981 38.9082L7.91895 38.9082ZM63.0955 38.9082L80.4099 23.2049L124.873 23.2049L114.546 38.9082L63.0955 38.9082ZM118.405 38.9082L128.731 23.2049L174.124 23.2049L170.783 38.9082L118.405 38.9082ZM174.093 38.9082L177.433 23.2049L223.396 23.2049L227.044 38.9082L174.093 38.9082ZM230.368 38.9082L226.719 23.2049L271.874 23.2049L282.513 38.9082L230.368 38.9082ZM286.406 38.9082L275.767 23.2049L321.23 23.2049L338.847 38.9082L286.406 38.9082ZM343.691 38.9082L326.074 23.2049L369.612 23.2049L394.316 38.9082L343.691 38.9082ZM464.444 42.1497L518.96 42.1497L556.671 57.858L495.792 57.858L464.444 42.1497ZM527.287 42.1497L564.997 57.858L625.867 57.858L581.729 42.1497L527.287 42.1497ZM591.305 42.1497L635.443 57.858L694.259 57.858L643.729 42.1497L591.305 42.1497ZM654.566 42.1497L705.096 57.858L762.813 57.858L705.839 42.1497L654.566 42.1497ZM717.961 42.1497L774.935 57.858L831.606 57.858L768.117 42.1497L717.961 42.1497ZM781.546 42.1497L845.036 57.858L899.833 57.858L829.968 42.1497L781.546 42.1497ZM844.683 42.1497L914.548 57.858L968.703 57.858L892.2 42.1497L844.683 42.1497ZM908.26 42.1497L984.763 57.858L1037.27 57.858L954.37 42.1496L908.26 42.1497ZM971.728 42.1496L1054.63 57.858L1106.26 57.858L1016.81 42.1496L971.728 42.1496ZM1035.5 42.1496L1124.96 57.858L1175.77 57.858L1079.71 42.1496L1035.5 42.1496ZM1099.75 42.1496L1195.81 57.8579L1244.74 57.8579L1142.07 42.1496L1099.75 42.1496ZM1163.46 42.1496L1266.13 57.8579L1312.29 57.8579L1203.31 42.1496L1163.46 42.1496ZM1225.99 42.1496L1334.97 57.8579L1382.13 57.8579L1266.4 42.1496L1225.99 42.1496ZM1290.46 42.1496L1406.19 57.8579L1483.22 57.8579L1365.1 42.1496L1290.46 42.1496ZM1389.65 42.1496L1507.77 57.8579L1551.95 57.8579L1427.35 42.1496L1389.65 42.1496ZM-989.206 42.1499L-1117.42 57.8582L-1074.33 57.8582L-952.795 42.1499L-989.206 42.1499ZM-927.543 42.1499L-1049.08 57.8582L-1004.08 57.8582L-889.111 42.1499L-927.543 42.1499ZM-865.204 42.1499L-980.171 57.8582L-935.603 57.8582L-826.719 42.1498L-865.204 42.1499ZM-804.058 42.1498L-912.942 57.8582L-864.761 57.8582L-762.607 42.1498L-804.058 42.1498ZM-741.322 42.1498L-843.476 57.8582L-794.574 57.8582L-698.974 42.1498L-741.322 42.1498ZM-679.027 42.1498L-774.628 57.8582L-725.558 57.8582L-636.186 42.1498L-679.027 42.1498ZM-617.509 42.1498L-706.881 57.8582L-655.53 57.8582L-572.667 42.1498L-617.509 42.1498ZM-555.315 42.1498L-638.178 57.8582L-582.731 57.8582L-507.636 42.1498L-555.315 42.1498ZM-491.861 42.1498L-566.957 57.8582L-514.884 57.8581L-444.898 42.1498L-491.861 42.1498ZM-430.158 42.1498L-500.144 57.8581L-444.464 57.8581L-381.01 42.1498L-430.158 42.1498ZM-367.587 42.1498L-431.042 57.8581L-378.653 57.8581L-322.165 42.1498L-367.587 42.1498ZM-310.141 42.1498L-366.629 57.8581L-309.337 57.8581L-259.034 42.1498L-310.141 42.1498ZM-248.242 42.1498L-298.544 57.8581L-238.847 57.8581L-195.041 42.1498L-248.242 42.1498ZM-185.53 42.1498L-229.336 57.8581L-162.59 57.8581L-124.666 42.1498L-185.53 42.1498ZM-116.218 42.1498L-154.141 57.8581L-92.0493 57.8581L-60.7583 42.1498L-116.218 42.1498ZM-53.5579 42.1498L-84.8489 57.8581L-27.3394 57.8581L-3.03931 42.1498L-53.5579 42.1498ZM2.90454 42.1498L-21.3955 57.8581L37.4041 57.8581L54.7241 42.1497L2.90454 42.1498ZM59.5215 42.1497L42.2014 57.8581L102.084 57.8581L112.414 42.1497L59.5215 42.1497ZM116.273 42.1497L105.943 57.8581L166.753 57.8581L170.094 42.1497L116.273 42.1497ZM173.404 42.1497L170.062 57.8581L231.447 57.8581L227.798 42.1497L173.404 42.1497ZM231.121 42.1497L234.77 57.8581L295.351 57.8581L284.709 42.1497L231.121 42.1497ZM288.602 42.1497L299.245 57.8581L360.107 57.858L342.484 42.1497L288.602 42.1497ZM347.327 42.1497L364.95 57.858L424.127 57.858L399.415 42.1497L347.327 42.1497ZM533.597 76.8028L502.26 61.0995L564.452 61.0995L602.15 76.8028L533.597 76.8028ZM610.477 76.8028L572.779 61.0995L634.975 61.0995L679.1 76.8028L610.477 76.8028ZM688.676 76.8028L644.551 61.0995L704.686 61.0995L755.199 76.8028L688.676 76.8028ZM766.037 76.8028L715.523 61.0995L774.57 61.0995L831.525 76.8028L766.037 76.8028ZM843.647 76.8028L786.692 61.0995L844.708 61.0995L908.176 76.8027L843.647 76.8028ZM921.606 76.8027L858.137 61.0995L914.25 61.0995L984.092 76.8027L921.606 76.8027ZM998.807 76.8027L928.965 61.0995L984.49 61.0995L1060.97 76.8027L998.807 76.8027ZM1077.03 76.8027L1000.55 61.0995L1054.37 61.0995L1137.25 76.8027L1077.03 76.8027ZM1154.6 76.8027L1071.73 61.0995L1124.72 61.0995L1214.15 76.8027L1154.6 76.8027ZM1232.84 76.8027L1143.42 61.0995L1195.59 61.0995L1291.63 76.8027L1232.84 76.8027ZM1311.67 76.8027L1215.63 61.0995L1265.92 61.0994L1368.56 76.8027L1311.67 76.8027ZM1389.95 76.8027L1287.31 61.0994L1334.78 61.0994L1443.72 76.8027L1389.95 76.8027ZM1466.4 76.8027L1357.46 61.0994L1406.01 61.0994L1521.7 76.8027L1466.4 76.8027ZM1545.76 76.8027L1430.07 61.0994L1507.59 61.0994L1625.67 76.8027L1545.76 76.8027ZM1650.22 76.8027L1532.14 61.0994L1577.6 61.0994V61.0914L1702.21 76.8027L1650.22 76.8027ZM-1272.05 76.803L-1143.88 61.0997L-1099.41 61.0997L-1220.9 76.803L-1272.05 76.803ZM-1195.65 76.803L-1074.16 61.0997L-1027.8 61.0997L-1142.73 76.803H-1195.65ZM-1118.83 76.803L-1003.9 61.0997L-958.072 61.0997L-1066.92 76.803L-1118.83 76.803ZM-1044.26 76.803L-935.411 61.0997L-885.841 61.0997L-987.962 76.803L-1044.26 76.803ZM-966.677 76.803L-864.556 61.0997L-814.302 61.0997L-909.872 76.803L-966.677 76.803ZM-889.925 76.803L-794.356 61.0997L-744 61.0997L-833.344 76.803L-889.925 76.803ZM-814.667 76.803L-725.324 61.0997L-672.629 61.0997L-755.465 76.8029L-814.667 76.803ZM-738.114 76.8029L-655.277 61.0997L-598.227 61.0997L-673.298 76.8029L-738.114 76.8029ZM-657.524 76.8029L-582.453 61.0997L-529.326 61.0997L-599.289 76.8029L-657.524 76.8029ZM-584.549 76.8029L-514.586 61.0997L-457.558 61.0996L-520.992 76.8029L-584.549 76.8029ZM-507.57 76.8029L-444.136 61.0996L-390.31 61.0996L-446.78 76.8029L-507.57 76.8029ZM-434.755 76.8029L-378.285 61.0996L-319.717 61.0996L-370.003 76.8029L-434.755 76.8029ZM-359.21 76.8029L-308.924 61.0996L-247.886 61.0996L-291.678 76.8029L-359.21 76.8029ZM-282.167 76.8029L-238.376 61.0996L-170.416 61.0996L-208.327 76.8029L-282.167 76.8029ZM-199.878 76.8029L-161.967 61.0996L-98.5066 61.0996L-129.787 76.8029L-199.878 76.8029ZM-122.587 76.8029L-91.3059 61.0996L-32.3538 61.0996L-56.646 76.8029L-122.587 76.8029ZM-50.7021 76.8029L-26.4099 61.0996L33.8301 61.0996L16.5156 76.8029L-50.7021 76.8029ZM21.313 76.8029L38.6274 61.0996L99.9526 61.0996L89.6257 76.8028L21.313 76.8029ZM93.4841 76.8028L103.811 61.0996L166.063 61.0996L162.723 76.8028L93.4841 76.8028ZM166.033 76.8028L169.373 61.0996L232.2 61.0996L235.848 76.8028L166.033 76.8028ZM239.172 76.8028L235.523 61.0996L297.547 61.0996L308.186 76.8028L239.172 76.8028ZM312.08 76.8028L301.441 61.0996L363.743 61.0996L381.36 76.8028L312.08 76.8028ZM386.204 76.8028L368.587 61.0995L429.227 61.0995L453.93 76.8028L386.204 76.8028ZM540.066 80.0443L580.231 100.171L658.25 100.171L609.932 80.0443L540.066 80.0443ZM688.208 80.0443L618.258 80.0443L666.576 100.171L744.762 100.171L688.208 80.0443ZM697.784 80.0443L754.338 100.171L830.371 100.171L765.626 80.0443L697.784 80.0443ZM776.464 80.0443L841.208 100.171L916.282 100.171L843.282 80.0443L776.464 80.0443ZM855.404 80.0443L928.404 100.171L1002.63 100.171L921.278 80.0443L855.404 80.0443ZM934.707 80.0443L1016.06 100.171L1088.03 100.171L998.509 80.0443L934.707 80.0443ZM1013.22 80.0443L1102.74 100.171L1174.78 100.171L1076.75 80.0442L1013.22 80.0443ZM1092.81 80.0442L1190.84 100.171L1260.57 100.171L1154.35 80.0442H1092.81ZM1171.71 80.0442L1277.93 100.171L1347.23 100.171L1232.61 80.0442L1171.71 80.0442ZM1251.3 80.0442L1365.92 100.171L1434.54 100.171L1311.45 80.0442L1251.3 80.0442ZM1331.49 80.0442L1454.58 100.171L1521.29 100.171L1389.74 80.0442L1331.49 80.0442ZM1411.13 80.0442L1542.68 100.171L1605.84 100.171L1466.21 80.0442L1411.13 80.0442ZM1488.89 80.0442L1628.52 100.171L1693.87 100.171L1545.58 80.0442L1488.89 80.0442ZM1569.64 80.0442L1717.93 100.171L1801.39 100.171L1650.05 80.0442L1569.64 80.0442ZM1674.6 80.0442L1825.94 100.171L1887.57 100.171L1727.93 80.0442L1674.6 80.0442ZM-1298.5 80.0445L-1462.78 100.172L-1401.7 100.172L-1245.98 80.0445L-1298.5 80.0445ZM-1220.73 80.0445L-1376.45 100.172L-1313.76 100.172L-1166.46 80.0445L-1220.73 80.0445ZM-1142.55 80.0445L-1289.86 100.172L-1228.9 100.172L-1089.39 80.0445L-1142.55 80.0445ZM-1066.73 80.0445L-1206.24 100.172L-1139.93 100.172L-1009.04 80.0445L-1066.73 80.0445ZM-987.757 80.0445L-1118.65 100.172L-1052.09 100.172L-929.6 80.0445L-987.757 80.0445ZM-909.653 80.0445L-1032.15 100.172L-966.298 100.172L-851.786 80.0445L-909.653 80.0445ZM-833.11 80.0445L-947.622 100.172L-878.737 100.172L-772.564 80.0444L-833.11 80.0445ZM-755.213 80.0444L-861.385 100.172L-785.014 100.172L-688.795 80.0444L-755.213 80.0444ZM-673.02 80.0444L-769.24 100.172L-703.403 100.172L-613.73 80.0444L-673.02 80.0444ZM-598.99 80.0444L-688.663 100.172L-615.391 100.172L-534.087 80.0444L-598.99 80.0444ZM-520.664 80.0444L-601.969 100.172L-530.814 100.172L-458.436 80.0444L-520.664 80.0444ZM-446.411 80.0444L-518.79 100.172L-444.835 100.172L-380.383 80.0444L-446.411 80.0444ZM-369.59 80.0444L-434.042 100.172L-356.846 100.171L-300.718 80.0444L-369.59 80.0444ZM-291.207 80.0444L-347.335 100.171L-264.744 100.171L-216.153 80.0444L-291.207 80.0444ZM-207.704 80.0444L-256.295 100.171L-176.337 100.171L-136.244 80.0444L-207.704 80.0444ZM-129.044 80.0444L-169.137 100.171L-92.7959 100.171L-61.6604 80.0444L-129.044 80.0444ZM-55.7166 80.0444L-86.8521 100.171L-9.25049 100.171L12.9417 80.0444L-55.7166 80.0444ZM17.739 80.0444L-4.45312 100.171L74.2581 100.171L87.4941 80.0443L17.739 80.0444ZM91.3525 80.0443L78.1165 100.171L157.753 100.171L162.034 80.0443L91.3525 80.0443ZM165.344 80.0443L161.062 100.171L241.278 100.171L236.602 80.0443L165.344 80.0443ZM239.925 80.0443L244.601 100.171L324.018 100.171L310.382 80.0443L239.925 80.0443ZM314.276 80.0443L327.912 100.171L407.577 100.171L384.997 80.0443L314.276 80.0443ZM389.841 80.0443L412.421 100.171L490.693 100.171L459.03 80.0443L389.841 80.0443ZM666.031 103.413L586.7 103.413L635.704 127.969H724.982L666.031 103.413ZM733.309 127.969L674.358 103.413L753.871 103.413L822.871 127.969H733.309ZM832.447 127.969L763.447 103.413L840.798 103.413L919.79 127.969H832.447ZM930.627 127.969L851.635 103.413L928.039 103.413L1017.1 127.969H930.627ZM1029.23 127.969L940.161 103.413L1015.73 103.413L1114.98 127.969H1029.23ZM1128.41 127.969L1029.16 103.413L1102.44 103.413L1211.66 127.969H1128.41ZM1226.38 127.969L1117.16 103.413L1190.56 103.413L1310.16 127.969H1226.38ZM1326.22 127.969L1206.62 103.413L1277.68 103.413L1407.27 127.969H1326.22ZM1424.63 127.969L1295.03 103.413L1365.69 103.413L1505.53 127.969H1424.63ZM1524.22 127.969L1384.38 103.413L1454.36 103.413L1604.53 127.969H1524.22ZM1624.58 127.969L1474.4 103.413L1542.47 103.413L1702.97 127.969H1624.58ZM1724.36 127.969L1563.86 103.413L1628.33 103.413L1798.69 127.969H1724.36ZM1821.37 127.969L1651.01 103.413L1717.75 103.413L1898.67 127.969H1821.37ZM1922.73 127.969L1741.81 103.413L1825.77 103.413L2010.42 127.969H1922.73ZM2034.97 127.969L1850.32 103.413L1913.28 103.413L2108.06 127.969H2034.97ZM-1689.67 127.969L-1489.24 103.413L-1426.78 103.413L-1616.77 127.969H-1689.67ZM-1591.52 127.969L-1401.53 103.413L-1337.49 103.413L-1517.21 127.969H-1591.52ZM-1493.3 127.969L-1313.58 103.413L-1251.37 103.413L-1421.58 127.969H-1493.3ZM-1398.92 127.969L-1228.71 103.413L-1161.01 103.413L-1320.7 127.969H-1398.92ZM-1299.42 127.969L-1139.73 103.413L-1071.82 103.413L-1221.27 127.969H-1299.42ZM-1201.32 127.969L-1051.87 103.413L-984.741 103.413L-1124.45 127.969H-1201.32ZM-1105.78 127.969L-966.064 103.413L-895.836 103.413L-1025.37 127.969H-1105.78ZM-1008.02 127.969L-878.485 103.413L-800.51 103.413L-917.904 127.969H-1008.02ZM-902.129 127.969L-784.736 103.413L-717.845 103.413L-827.25 127.969H-902.129ZM-812.51 127.969L-703.105 103.413L-628.485 103.413L-727.681 127.969H-812.51ZM-714.259 127.969L-615.063 103.413L-542.471 103.413L-630.776 127.969H-714.259ZM-618.751 127.969L-530.446 103.413L-455.215 103.413L-533.85 127.969H-618.751ZM-523.058 127.969L-444.423 103.413L-365.886 103.413L-434.366 127.969H-523.058ZM-424.855 127.969L-356.375 103.413L-272.57 103.413L-331.854 127.969H-424.855ZM-323.405 127.969L-264.121 103.413L-182.794 103.413L-231.71 127.969H-323.405ZM-224.51 127.969L-175.594 103.413L-97.8103 103.413L-135.798 127.969H-224.51ZM-129.854 127.969L-91.8665 103.413L-12.8245 103.413L-39.9001 127.969H-129.854ZM-35.1028 127.969L-8.0271 103.413L72.1262 103.413L55.9775 127.969H-35.1028ZM59.8359 127.969L75.9846 103.413L157.063 103.413L151.84 127.969H59.8359ZM155.15 127.969L160.373 103.413L242.031 103.413L247.736 127.969H155.15ZM251.059 127.969L245.354 103.413L326.214 103.413L342.851 127.969H251.059ZM346.744 127.969L330.108 103.413L411.214 103.413L438.763 127.969H346.744ZM443.606 127.969L416.057 103.413L495.792 103.413L534.424 127.969H443.606ZM642.173 131.211L695.341 157.854H796.724L732.764 131.211H642.173ZM741.091 131.211L805.051 157.854H906.843L831.979 131.211H741.091ZM841.555 131.211L916.419 157.854H1015.92L930.217 131.211H841.555ZM941.055 131.211L1026.76 157.854H1125.49L1028.86 131.211H941.055ZM1040.98 131.211L1137.62 157.854H1235.76L1128.08 131.211H1040.98ZM1141.51 131.211L1249.19 157.854H1344.58L1226.08 131.211H1141.51ZM1240.79 131.211L1359.29 157.854H1455.7L1325.95 131.211H1240.79ZM1342.01 131.211L1471.76 157.854H1564.98L1424.37 131.211H1342.01ZM1441.73 131.211L1582.34 157.854H1675.72L1523.99 131.211H1441.73ZM1542.68 131.211L1694.41 157.854H1787.29L1624.36 131.211H1542.68ZM1644.4 131.211L1807.33 157.854H1898.28L1724.15 131.211H1644.4ZM1745.54 131.211L1919.67 157.854H2006.02L1821.18 131.211H1745.54ZM1843.86 131.211L2028.7 157.854H2118.84L1922.55 131.211H1843.86ZM1946.61 131.211L2142.9 157.854H2235.14L2034.79 131.211H1946.61ZM2059.35 131.211L2259.69 157.854H2345.09L2133.77 131.211H2059.35ZM-1716.12 131.211L-1933.58 157.854H-1847.98L-1641.85 131.211H-1716.12ZM-1616.59 131.211L-1822.73 157.854H-1735.93L-1540.93 131.211H-1616.59ZM-1517.03 131.211L-1712.02 157.854H-1628.73L-1444.05 131.211H-1517.03ZM-1421.39 131.211L-1606.07 157.854H-1515.05L-1341.78 131.211H-1421.39ZM-1320.5 131.211L-1493.76 157.854H-1403.14L-1241 131.211H-1320.5ZM-1221.05 131.211L-1383.2 157.854H-1294.48L-1142.89 131.211H-1221.05ZM-1124.22 131.211L-1275.8 157.854H-1183.02L-1042.47 131.211H-1124.22ZM-1025.12 131.211L-1165.66 157.854H-1060.77L-933.4 131.211H-1025.12ZM-917.626 131.211L-1044.99 157.854H-960.394L-841.692 131.211H-917.626ZM-826.952 131.211L-945.654 157.854H-848.401L-740.775 131.211H-826.952ZM-727.353 131.211L-834.979 157.854H-738.242L-642.433 131.211H-727.353ZM-630.408 131.211L-726.217 157.854H-629.548L-544.23 131.211H-630.408ZM-533.438 131.211L-618.755 157.854H-517.705L-443.405 131.211H-533.438ZM-433.894 131.211L-508.194 157.854H-404.002L-339.68 131.211H-433.894ZM-331.231 131.211L-395.553 157.854H-291.24L-238.167 131.211H-331.231ZM-230.967 131.211L-284.039 157.854H-182.027L-140.812 131.211H-230.967ZM-134.868 131.211L-176.083 157.854H-72.8508L-43.4744 131.211H-134.868ZM-38.6768 131.211L-68.0532 157.854H36.325L53.8459 131.211H-38.6768ZM57.7043 131.211L40.1833 157.854H145.484L151.151 131.211H57.7043ZM154.46 131.211L148.793 157.854H254.679L248.489 131.211H154.46ZM251.812 131.211L258.002 157.854H363.097L345.047 131.211H251.812ZM348.94 131.211L366.991 157.854H472.289L442.399 131.211H348.94ZM447.243 131.211L477.133 157.854H581.437L539.523 131.211H447.243ZM694.598 161.095H592.552L646.319 195.273L645.592 196.698H765.647L694.598 161.095ZM772.11 196.323L701.81 161.095H804.506L889.976 196.698H771.959L772.11 196.323ZM898.302 196.698L812.833 161.095H915.951L1015.99 196.698H898.302ZM1025.57 196.698L925.527 161.095H1026.35L1140.87 196.698H1025.57ZM1151.71 196.698L1037.19 161.095H1137.25L1266.38 196.698H1151.71ZM1278.5 196.698L1149.37 161.095H1248.87L1392.76 196.698H1278.5ZM1406.19 196.698L1262.29 161.095H1358.99L1517.34 196.698H1406.19ZM1532.06 196.698L1373.71 161.095H1471.49L1644.88 196.698H1532.06ZM1660.94 196.698L1487.55 161.095H1582.08L1769.97 196.698H1660.94ZM1787.33 196.698L1599.44 161.095H1694.18L1896.93 196.698H1787.33ZM1915.62 196.698L1712.87 161.095H1807.12L2024.84 196.698H1915.62ZM2043.04 196.396L1827.16 161.095H1919.47L2152.16 196.698H2043.01L2043.04 196.396ZM2170.51 196.234L1940.86 161.095H2028.5L2275.5 196.698H2170.47L2170.51 196.234ZM2297.68 196.626L2051.18 161.095H2142.72L2405.02 196.698H2297.68L2297.68 196.626ZM2425.03 196.148L2166.78 161.095H2259.51L2527.23 196.698H2424.99L2425.03 196.148ZM2551.78 196.698L2284.06 161.095H2370.8L2653.2 196.698H2551.78ZM-2250.63 196.698L-1960.04 161.095H-1873.06L-2148.51 196.698H-2250.63ZM-2123.26 196.698L-1847.81 161.095H-1759.65L-2020.23 196.698H-2123.26ZM-1996.32 196.698L-1735.75 161.095H-1651.2L-1896.09 196.425L-1896.07 196.698H-1996.32ZM-1875.33 196.698L-1628.54 161.095H-1536.13L-1767.66 196.698H-1875.33ZM-1746.37 196.698L-1514.84 161.095H-1422.87L-1639.55 196.698H-1746.37ZM-1619.6 196.698L-1402.93 161.095H-1312.92L-1515.21 196.65L-1515.2 196.698H-1619.6ZM-1496.81 196.698L-1294.24 161.095H-1200.11L-1387.92 196.698H-1496.81ZM-1370.57 196.698L-1182.76 161.095H-1076.27L-1246.47 196.698H-1370.57ZM-1230.69 196.698L-1060.49 161.095H-974.836L-1133.46 196.698H-1230.69ZM-1118.72 196.698L-960.096 161.095H-861.495L-1005.31 196.698H-1118.72ZM-991.893 196.698L-848.073 161.095H-749.899L-877.928 196.698H-991.893ZM-865.904 196.698L-737.874 161.095H-639.928L-753.196 196.467L-753.154 196.698H-865.904ZM-743.145 196.698L-629.136 161.095H-526.744L-626.03 196.698H-743.145ZM-616.519 196.698L-517.233 161.095H-411.828L-497.782 196.698H-616.519ZM-489.333 196.698L-403.379 161.095H-297.697L-368.618 196.698H-489.333ZM-361.417 196.698L-290.496 161.095H-187.042L-242.118 196.698H-361.417ZM-236.174 196.698L-181.098 161.095H-76.4248L-115.681 196.698H-236.174ZM-110.883 196.698L-71.6274 161.095H34.1934L10.78 196.698H-110.883ZM14.6384 196.698L38.0518 161.095H144.794L137.221 196.698H14.6384ZM140.531 196.698L148.104 161.095H255.432L263.703 196.698H140.531ZM267.026 196.698L258.755 161.095H365.293L389.414 196.698H267.026ZM392.94 196.156L369.187 161.095H475.926L515.868 196.698H392.298L392.94 196.156Z" fill="url(#paint0_linear_1080_659)"/>
<defs>
<linearGradient id="paint0_linear_1080_659" x1="201" y1="0.234741" x2="201" y2="200.839" gradientUnits="userSpaceOnUse">
<stop stop-color="#DADADA" stop-opacity="0"/>
<stop offset="1" stop-color="#D6D6D6"/>
</linearGradient>
</defs>
</svg>
