<svg width="878" height="147" viewBox="0 0 878 147" fill="none" xmlns="http://www.w3.org/2000/svg">
<path fill-rule="evenodd" clip-rule="evenodd" d="M0.179688 59.4879C0.179688 95.5015 23.959 118.936 62.2127 118.936C101.328 118.936 124.935 95.5015 124.935 59.4879C124.935 23.4743 101.328 0.0396729 62.2127 0.0396729C23.959 0.0396729 0.179688 23.4743 0.179688 59.4879ZM97.3648 59.4879C97.3648 85.1627 87.5429 94.123 62.2127 94.123C36.8826 94.123 27.5776 85.1627 27.5776 59.4879C27.5776 33.8132 36.8826 24.8529 62.2127 24.8529C87.5429 24.8529 97.3648 33.8132 97.3648 59.4879ZM134.484 146.506H160.331V93.9507H161.537C164.466 109.114 175.494 118.936 195.483 118.936C221.502 118.936 235.977 101.532 235.977 74.1346C235.977 46.7367 221.158 29.1607 194.621 29.1607C174.288 29.1607 163.26 37.9487 160.158 54.4908H158.435V30.8838H134.484V146.506ZM185.489 95.3292C169.291 95.3292 160.331 90.1597 160.331 75.3408V73.9623C160.331 58.6263 168.946 52.94 185.661 52.94C202.031 52.94 209.785 58.2817 209.785 74.1346C209.785 89.8151 202.031 95.3292 185.489 95.3292ZM290.836 118.936C262.059 118.936 242.415 104.806 242.415 74.1346C242.415 46.5644 261.887 29.1607 290.319 29.1607C318.578 29.1607 337.36 43.9797 337.36 71.0329C337.36 73.6453 337.116 75.6466 336.833 77.9632L336.832 77.9673L336.831 77.9763C336.779 78.406 336.725 78.8466 336.671 79.304H266.367C267.056 92.5721 273.26 98.2585 289.974 98.2585C305.31 98.2585 310.652 94.2953 310.652 86.8858V85.1627H336.499V87.0581C336.499 105.84 318.234 118.936 290.836 118.936ZM289.802 49.3214C274.466 49.3214 267.918 54.4908 266.712 65.6912H312.547C311.858 54.3185 304.965 49.3214 289.802 49.3214ZM346.598 117.213H372.445V73.6176C372.445 58.971 378.304 52.423 394.674 52.423C410.527 52.423 416.213 58.2817 416.213 72.0668V117.213H442.06V63.4511C442.06 44.3243 430.86 29.1607 407.253 29.1607C384.679 29.1607 374.341 42.9458 372.1 57.4201H370.55V30.8838H346.598V117.213ZM637.512 118.935C608.046 118.935 588.23 101.359 588.23 74.1336C588.23 46.5634 608.046 29.1597 637.512 29.1597C666.977 29.1597 686.793 46.5634 686.793 74.1336C686.793 101.359 666.977 118.935 637.512 118.935ZM637.512 96.0174C654.915 96.0174 661.119 89.2972 661.119 74.1336C661.119 58.97 654.915 51.9051 637.512 51.9051C619.936 51.9051 613.905 58.97 613.905 74.1336C613.905 89.2972 619.936 96.0174 637.512 96.0174ZM721.473 117.212H695.626V30.8828H719.577V53.8005H721.128C723.541 39.8431 732.673 29.1597 750.077 29.1597C769.376 29.1597 777.303 42.4278 777.303 59.3146V73.6166H751.456V64.6563C751.456 55.1791 747.665 51.0435 737.153 51.0435C725.608 51.0435 721.473 56.3853 721.473 67.241V117.212ZM782.355 74.1336C782.355 104.805 801.999 118.935 830.775 118.935C858.173 118.935 876.438 105.839 876.438 87.0571V85.1617H850.591V86.8848C850.591 94.2943 845.25 98.2575 829.914 98.2575C813.199 98.2575 806.996 92.5711 806.307 79.303H876.611C876.635 79.0927 876.66 78.8861 876.685 78.6823C876.714 78.4389 876.743 78.1996 876.772 77.9637C877.055 75.6464 877.3 73.6449 877.3 71.0319C877.3 43.9787 858.518 29.1597 830.258 29.1597C801.826 29.1597 782.355 46.5634 782.355 74.1336ZM806.651 65.6902C807.857 54.4898 814.405 49.3204 829.741 49.3204C844.905 49.3204 851.797 54.3175 852.487 65.6902H806.651Z" fill="#294F74"/>
<path fill-rule="evenodd" clip-rule="evenodd" d="M455.469 62.2187C455.469 98.7542 479.418 122.529 518.051 122.529C554.587 122.529 577.837 104.348 577.837 74.6303C577.837 73.1821 576.663 72.0082 575.215 72.0082H551.266C549.817 72.0082 548.643 73.1821 548.643 74.6303C548.643 90.0137 539.903 97.3558 518.576 97.3558C492.879 97.3558 480.712 88.5119 480.712 62.465C480.712 36.4182 492.879 27.0817 518.576 27.0817C539.903 27.0817 548.643 34.4238 548.643 49.8072C548.643 51.2553 549.817 52.4293 551.266 52.4293H575.215C576.663 52.4293 577.837 51.2553 577.837 49.8072C577.837 20.0893 554.412 1.90894 518.051 1.90894C479.418 1.90894 455.469 25.6832 455.469 62.2187Z" fill="#294F74"/>
<path d="M499.432 62.2176C499.432 49.5189 504.12 45.0872 516.648 45.0872C529.176 45.0872 533.864 49.5189 533.864 62.2176C533.864 74.9162 529.176 79.348 516.648 79.348C504.12 79.348 499.432 74.9162 499.432 62.2176Z" fill="#294F74"/>
</svg>
