<svg width="1440" height="156" viewBox="0 0 1440 156" fill="none" xmlns="http://www.w3.org/2000/svg">
<path fill-rule="evenodd" clip-rule="evenodd" d="M276.248 4.60164L331.136 31.2052L437.394 31.2052L398.609 4.84467L398.837 4.60164L276.248 4.60164ZM370.329 53.7999L330.457 34.4748L230.693 34.4748L281.271 53.7999H370.329ZM377.075 57.0695L414.438 75.1788L337.224 75.1789L289.828 57.0695L377.075 57.0695ZM451.52 93.1515L421.184 78.4485L345.781 78.4485L384.262 93.1515L451.52 93.1515ZM458.266 96.4211L481.588 107.725L422.404 107.725L392.82 96.4211L458.266 96.4211ZM511.651 122.296L488.333 110.994L430.961 110.994L460.54 122.296L511.651 122.296ZM518.397 125.566L541.717 136.868L498.679 136.868L469.097 125.566L518.397 125.566ZM571.783 151.441L548.463 140.138L507.236 140.138L536.817 151.441L571.783 151.441ZM578.529 154.71L579.994 155.42L580.469 154.71L1234.75 154.71L1234.79 154.972L1236.43 154.71L1612.83 154.71V153.939L1760.56 140.138L1767.97 140.138V139.445L1916.55 125.566H1922.78V124.984L2072.53 110.994H2079.93V110.303L2228.53 96.4209H2235.09V95.8085L2420.92 78.4483H2428.39V77.7504L2649.77 57.0695H2654.8V56.5994L2891.64 34.4748H2905.49V33.1805L3211.42 4.60164H3219.96V3.80362L3220.01 3.79842L3219.96 3.2029V1.33203H3219.78L3219.71 0.542984L3211.26 1.33203L3091.55 1.33203L3091.46 0.384079L3081.84 1.33203H2963.33L2963.22 0.252792L2952.86 1.33203L2834.99 1.33203L2834.93 0.783554L2829.94 1.33203H2707.31L2707.2 0.360794L2698.91 1.33203L2579.07 1.33203L2578.93 0.225998L2570.11 1.33203H2450.76L2450.67 0.619858L2445.35 1.33203L2322.49 1.33203L2322.38 0.568558L2317.1 1.33203H2180.9L2180.81 0.775665L2177.32 1.33203L2069.24 1.33203L2069.01 6.10352e-05L2061.23 1.33203L1939.53 1.33203L1939.28 0.0266876L1932.37 1.33203H1809.87L1809.71 0.567856L1806.11 1.33203L1681.85 1.33203L1681.81 1.18544L1681.2 1.33203H1553.91L1553.8 0.931107L1552.33 1.33203L1425.79 1.33203L1425.32 0.264648L1421.94 1.33203H1296L1295.32 0.0593414L1292 1.33203L1167.77 1.33203L1167 0.200821L1164.7 1.33203H1039.18L1038.46 0.576828L1037.37 1.33203L910.092 1.33203L909.881 1.19997L909.767 1.33203L18.4216 1.33203L16.3125 0.662109L16.0996 1.33203H-109.805L-111.698 0.818466L-111.837 1.33203L-236.887 1.33203L-239.563 0.697708L-239.714 1.33203H-364.616L-367.668 0.690445L-367.803 1.33203L-493.236 1.33203L-495.76 0.855835L-495.85 1.33203L-620.013 1.33203L-624.206 0.613235L-624.33 1.33203H-749.829L-752.573 0.902328L-752.641 1.33203L-877.12 1.33203L-880.827 0.796494L-880.904 1.33203H-1006.32L-1009.25 0.940125L-1009.3 1.33203L-1136.52 1.33203L-1137.63 1.19334L-1137.65 1.33203H-1266.09L-1266.23 1.31499L-1266.24 1.33203L-1391.63 1.33203L-1394.52 1.01337L-1394.56 1.33203L-1647.11 1.33203L-1651.35 0.901672L-1651.4 1.33203L-1775.33 1.33203L-1779.7 0.911774L-1779.74 1.33203H-1779.98V3.77034L-1780.01 4.16638L-1779.98 4.17004V4.60164H-1775.49L-1474.22 33.5622V34.4748H-1464.73L-1230.78 56.9646V57.0695H-1229.69L-820.378 96.4212H-820.328L-214.07 154.701V154.71H-213.973L-212.936 154.81L-212.926 154.71L-166.926 154.71L-166.046 154.799L-166.037 154.71L-73.1809 154.71L-72.2849 154.803L-72.2754 154.71L-26.0193 154.71L-25.4077 154.777L-25.4004 154.71L20.3948 154.71L21.446 154.833L21.4604 154.71L67.2205 154.71L68.325 154.848L68.342 154.71L114.585 154.71L115.205 154.793L115.216 154.71L161.582 154.71L162.066 154.78L162.076 154.71L208.703 154.71L208.939 154.747L208.945 154.71L255.304 154.71L255.788 154.793L255.802 154.71L302.15 154.71L302.646 154.804L302.664 154.71L349.078 154.71L349.492 154.797L349.51 154.71L396.009 154.71L396.35 154.791L396.369 154.71L442.934 154.71L443.173 154.775L443.191 154.71L536.28 154.71L537.574 155.204L537.834 154.71L578.529 154.71ZM430.885 151.441L389.233 140.138L348.708 140.138L396.391 151.441L430.885 151.441ZM382.215 151.441L334.532 140.138L295.654 140.138L349.418 151.441L382.215 151.441ZM333.525 151.441L279.761 140.138L242.543 140.138L302.455 151.441L333.525 151.441ZM284.818 151.441L224.906 140.138L189.653 140.138L255.583 151.441L284.818 151.441ZM236.233 151.441L170.303 140.138L136.765 140.138L208.958 151.441L236.233 151.441ZM187.82 151.441L115.626 140.138L83.5889 140.138L161.817 151.441L187.82 151.441ZM138.952 151.441L60.7239 140.138L30.3865 140.138L114.803 151.441L138.952 151.441ZM90.1648 151.441L5.74854 140.138L-23.2292 140.138L67.4233 151.441L90.1648 151.441ZM40.9968 151.441L-49.6558 140.138L-76.2969 140.138L20.585 151.441L40.9968 151.441ZM-7.63086 151.441L-104.513 140.138L-128.679 140.138L-25.8401 151.441L-7.63086 151.441ZM-55.7683 151.441L-158.607 140.138L-182.223 140.138L-73.0122 151.441L-55.7683 151.441ZM-104.773 151.441L-213.984 140.138L-278.225 140.138L-166.76 151.441L-104.773 151.441ZM-199.17 151.441L-310.635 140.138L-331.393 140.138L-213.816 151.441L-199.17 151.441ZM443.37 151.441L401.718 140.138L444.645 140.138L480.23 151.441L443.37 151.441ZM491.031 151.441L527.723 151.441L498.142 140.138L455.446 140.138L491.031 151.441ZM1610.95 151.441L1610.9 150.836L1725.41 140.138L1706.72 140.138L1592.04 151.441L1610.95 151.441ZM1562.59 151.441L1562.55 151.061L1673.39 140.138L1652.05 140.138L1543.56 151.441L1562.59 151.441ZM1515.68 151.441L1515.64 151.062L1620.5 140.138L1597.99 140.138L1495.24 151.441L1515.68 151.441ZM1468.79 151.441L1468.75 151.065L1568.08 140.138L1543.13 140.138L1446.73 151.441L1468.79 151.441ZM1421.88 151.441L1421.83 151.067L1515.05 140.138L1488.49 140.138L1398.27 151.441L1421.88 151.441ZM1374.97 151.441L1374.93 151.07L1462.19 140.138L1434.23 140.138L1349.9 151.441L1374.97 151.441ZM1328.07 151.441L1328.02 151.074L1409.62 140.138L1379.65 140.138L1301.45 151.441L1328.07 151.441ZM1281.15 151.441L1281.1 151.079L1356.79 140.138L1327.8 140.138L1256.93 151.441L1281.15 151.441ZM1236.17 151.441L1307.04 140.138L1269.55 140.138L1203.51 151.441L1236.17 151.441ZM1187.34 151.441L1187.25 150.906L1250.17 140.138L1214.62 140.138L1154.74 151.441L1187.34 151.441ZM1140.42 151.441L1140.31 150.837L1196.99 140.138L1167.23 140.138L1113.92 151.441L1140.42 151.441ZM1098.16 151.441L1151.47 140.138L1112.36 140.138L1064.89 151.441L1098.16 151.441ZM1050.78 151.441L1098.25 140.138L1057.06 140.138L1015.72 151.441L1050.78 151.441ZM1003.74 151.441L1003.71 151.335L1044.67 140.138L993.243 140.138L957.456 151.441L1003.74 151.441ZM948.682 151.441L948.438 150.879L982.447 140.138L938.447 140.138L908.919 151.441L948.682 151.441ZM902.238 151.441L901.834 150.677L929.367 140.138L890.415 140.138L867.484 151.441L902.238 151.441ZM861.721 151.441L861.329 150.865L883.091 140.138L842.325 140.138L825.98 151.441L861.721 151.441ZM820.991 151.441L820.717 151.154L836.647 140.138L794.318 140.138L784.569 151.441L820.991 151.441ZM780.302 151.441L790.051 140.138L746.324 140.138L743.171 151.441L780.302 151.441ZM739.786 151.441L742.939 140.138L698.305 140.138L701.749 151.441L739.786 151.441ZM698.341 151.441L694.897 140.138L651.289 140.138L661.332 151.441L698.341 151.441ZM657.01 151.441L646.967 140.138L603.417 140.138L620.047 151.441L657.01 151.441ZM614.302 151.441L579.208 151.441L555.888 140.138L597.672 140.138L614.302 151.441ZM460.003 125.566L489.584 136.868L445.152 136.868L409.566 125.566L460.003 125.566ZM434.351 136.868L389.669 136.868L348.017 125.566L398.765 125.566L434.351 136.868ZM335.532 125.566L377.184 136.868L334.914 136.868L287.23 125.566L335.532 125.566ZM273.054 125.566L320.738 136.868L280.101 136.868L226.337 125.566L273.054 125.566ZM210.444 125.566L264.208 136.868L225.211 136.868L165.299 125.566L210.444 125.566ZM147.661 125.566L207.574 136.868L170.581 136.868L104.652 125.566L147.661 125.566ZM85.3022 125.566L151.231 136.868L115.881 136.868L43.6877 125.566L85.3022 125.566ZM22.5493 125.566L94.7424 136.868L60.9592 136.868L-17.269 125.566L22.5493 125.566ZM-40.134 125.566L38.0942 136.868L5.96655 136.868L-78.4497 125.566L-40.134 125.566ZM-103.088 125.566L-18.6714 136.868L-49.4529 136.868L-140.105 125.566L-103.088 125.566ZM-166.532 125.566L-75.8796 136.868L-104.323 136.868L-201.205 125.566L-166.532 125.566ZM-229.421 125.566L-132.539 136.868L-158.428 136.868L-261.266 125.566L-229.421 125.566ZM-291.195 125.566L-188.356 136.868L-213.816 136.868L-323.027 125.566L-291.195 125.566ZM-354.787 125.566L-245.576 136.868L-310.469 136.868L-421.934 125.566L-354.787 125.566ZM-454.344 125.566L-342.879 136.868L-365.361 136.868V136.873L-482.981 125.566L-454.344 125.566ZM1881.4 125.566L1760.41 136.868L1739.9 136.868L1854.59 125.566L1881.4 125.566ZM1821.25 125.566L1706.56 136.868L1683.44 136.868L1791.93 125.566L1821.25 125.566ZM1760.38 125.566L1651.89 136.868L1627.71 136.868L1730.46 125.566L1760.38 125.566ZM1700.56 125.566L1597.81 136.868L1571.01 136.868L1667.41 125.566L1700.56 125.566ZM1639.34 125.566L1542.94 136.868L1514.59 136.868L1604.8 125.566L1639.34 125.566ZM1578.5 125.566L1488.29 136.868L1458.63 136.868L1542.97 125.566L1578.5 125.566ZM1518.35 125.566L1434.02 136.868L1402.27 136.868L1480.46 125.566L1518.35 125.566ZM1457.61 125.566L1379.41 136.868L1348.3 136.868L1419.16 125.566L1457.61 125.566ZM1398.4 125.566L1327.54 136.868L1288.65 136.868L1354.7 125.566L1398.4 125.566ZM1335.31 125.566L1269.27 136.868L1231.94 136.868L1291.82 125.566L1335.31 125.566ZM1274.19 125.566L1214.31 136.868L1182.65 136.868L1235.95 125.566L1274.19 125.566ZM1220.19 125.566L1166.89 136.868L1126.09 136.868L1173.56 125.566L1220.19 125.566ZM1159.45 125.566L1111.98 136.868L1069.02 136.868L1110.36 125.566L1159.45 125.566ZM1097.96 125.566L1056.62 136.868L1003.6 136.868L1039.38 125.566L1097.96 125.566ZM1028.59 125.566L992.8 136.868L946.989 136.868L976.517 125.566L1028.59 125.566ZM967.438 125.566L937.909 136.868L897.049 136.868L919.98 125.566L967.438 125.566ZM912.656 125.566L889.725 136.868L847.053 136.868L863.397 125.566L912.656 125.566ZM857.72 125.566L841.375 136.868L797.137 136.868L806.886 125.566L857.72 125.566ZM802.619 125.566L792.87 136.868L747.236 136.868L750.389 125.566L802.619 125.566ZM747.004 125.566L743.851 136.868L697.309 136.868L693.865 125.566L747.004 125.566ZM690.457 125.566L693.901 136.868L648.384 136.868L638.341 125.566L690.457 125.566ZM634.019 125.566L644.062 136.868L598.606 136.868L581.976 125.566L634.019 125.566ZM576.231 125.566L592.861 136.868L549.142 136.868L525.822 125.566L576.231 125.566ZM451.446 122.296L399.271 122.296L363.689 110.994L421.867 110.994L451.446 122.296ZM388.47 122.296L352.888 110.994L294.319 110.994L335.968 122.296L388.47 122.296ZM323.483 122.296L281.834 110.994L225.757 110.994L273.436 122.296L323.483 122.296ZM259.26 122.296L211.581 110.994L157.025 110.994L210.784 122.296L259.26 122.296ZM194.891 122.296L141.132 110.994L88.0596 110.994L147.967 122.296L194.891 122.296ZM130.33 122.296L70.4224 110.994L19.6567 110.994L85.5803 122.296L130.33 122.296ZM66.2305 122.296L0.306885 110.994L-49.3831 110.994L22.804 122.296L66.2305 122.296ZM1.66553 122.296L-70.5215 110.994L-118.12 110.994L-39.8987 122.296L1.66553 122.296ZM-62.7637 122.296L-140.985 110.994L-187.279 110.994L-102.87 122.296H-62.7637ZM-127.507 122.296L-211.917 110.995L-256.974 110.995L-166.329 122.296L-127.507 122.296ZM-192.756 122.296L-283.401 110.995L-326.104 110.995L-229.23 122.296H-192.756ZM-257.446 122.296L-354.32 110.995L-393.845 110.995L-291.015 122.296L-257.446 122.296ZM-320.944 122.296L-423.774 110.995L-463.82 110.995L-354.619 122.296L-320.944 122.296ZM-386.38 122.296L-495.581 110.995L-565.634 110.995L-454.179 122.296L-386.38 122.296ZM-486.588 122.296L-598.044 110.995L-634.559 110.995L-516.965 122.296L-486.588 122.296ZM1916.4 122.296L2037.38 110.994L2002.44 110.994L1887.76 122.296L1916.4 122.296ZM1854.43 122.296L1969.1 110.994H1931.8L1823.31 122.296H1854.43ZM1791.76 122.296L1900.24 110.994L1862.93 110.994L1760.18 122.296L1791.76 122.296ZM1730.28 122.296L1833.02 110.994L1791.69 110.994L1695.3 122.296L1730.28 122.296ZM1667.22 122.296L1763.61 110.994L1721.11 110.994L1630.9 122.296L1667.22 122.296ZM1604.6 122.296L1694.81 110.994L1651.7 110.994L1567.37 122.296L1604.6 122.296ZM1542.75 122.296L1627.08 110.994L1581.27 110.994L1503.08 122.296L1542.75 122.296ZM1480.23 122.296L1558.42 110.994L1510.52 110.994L1439.66 122.296L1480.23 122.296ZM1418.9 122.296L1489.76 110.994L1439.84 110.994L1373.8 122.296L1418.9 122.296ZM1354.42 122.296L1420.46 110.994L1369.02 110.994L1309.14 122.296L1354.42 122.296ZM1291.51 122.296L1351.39 110.994L1304.68 110.994L1251.37 122.296L1291.51 122.296ZM1235.61 122.296L1288.91 110.994L1234.76 110.994L1187.29 122.296L1235.61 122.296ZM1173.18 122.296L1220.64 110.994L1163.65 110.994L1122.32 122.296L1173.18 122.296ZM1109.92 122.296L1151.26 110.994L1085.52 110.994L1049.74 122.296L1109.92 122.296ZM1038.94 122.296L1074.72 110.994L1014.58 110.994L985.059 122.296L1038.94 122.296ZM975.979 122.296L1005.51 110.994L949.542 110.994L926.613 122.296L975.979 122.296ZM919.29 122.296L942.219 110.994L884.468 110.994L868.125 122.296L919.29 122.296ZM862.448 122.296L878.791 110.994L819.453 110.994L809.706 122.296L862.448 122.296ZM805.439 122.296L815.186 110.994L754.454 110.994L751.302 122.296L805.439 122.296ZM747.916 122.296L751.069 110.994L689.425 110.994L692.868 122.296L747.916 122.296ZM689.461 122.296L686.017 110.994L625.394 110.994L635.436 122.296L689.461 122.296ZM631.114 122.296L621.072 110.994L560.537 110.994L577.166 122.296L631.114 122.296ZM571.42 122.296L554.792 110.994L495.759 110.994L519.076 122.296L571.42 122.296ZM383.725 96.4211L413.31 107.725L353.395 107.725L317.805 96.4211L383.725 96.4211ZM307.004 96.4211L342.594 107.725L282.27 107.725L240.614 96.4211L307.004 96.4211ZM228.129 96.4211L269.785 107.725L211.963 107.725L164.275 96.4211L228.129 96.4211ZM150.099 96.4211L197.787 107.725L141.472 107.725L87.7024 96.4211L150.099 96.4211ZM71.8096 96.4211L125.579 107.725L70.728 107.725L10.8096 96.4211L71.8096 96.4211ZM-6.82764 96.4211L53.0908 107.725L0.584717 107.725L-65.3508 96.4211L-6.82764 96.4211ZM-84.7007 96.4211L-18.7651 107.725L-70.2668 107.725L-142.467 96.4211L-84.7007 96.4211ZM-218.986 96.4212L-163.605 96.4211L-91.4053 107.725L-140.75 107.725L-218.986 96.4212ZM-241.851 96.4212L-163.615 107.725L-211.698 107.725L-296.123 96.4212L-241.851 96.4212ZM-320.761 96.4212L-236.336 107.725L-283.198 107.725L-373.859 96.4212L-320.761 96.4212ZM-400.286 96.4212L-309.625 107.725L-354.13 107.725L-451.021 96.4212L-400.286 96.4212ZM-479.237 96.4212L-382.345 107.725L-423.594 107.725L-526.443 96.4212L-479.237 96.4212ZM-556.371 96.4212L-453.523 107.725L-495.413 107.725L-604.634 96.4212L-556.371 96.4212ZM-636.395 96.4212L-527.174 107.725L-597.878 107.725L-709.354 96.4212L-636.395 96.4212ZM-741.764 96.4212L-630.288 107.725L-668.512 107.725V107.731L-786.159 96.4212L-741.764 96.4212ZM2193.38 96.4209L2072.38 107.725L2035.62 107.725L2150.32 96.4209L2193.38 96.4209ZM2116.98 96.4209L2002.28 107.725L1963.18 107.725L2071.68 96.421L2116.98 96.4209ZM2040.13 96.421L1931.63 107.725L1892.65 107.725L1995.41 96.421L2040.13 96.421ZM1965.51 96.421L1862.75 107.725L1819.58 107.725L1915.99 96.421L1965.51 96.421ZM1887.91 96.421L1791.5 107.725L1747.2 107.725L1837.43 96.421L1887.91 96.421ZM1811.13 96.421L1720.9 107.725L1676.09 107.725L1760.44 96.421L1811.13 96.421ZM1735.82 96.421L1651.48 107.725L1603.89 107.725L1682.1 96.421L1735.82 96.421ZM1659.24 96.421L1581.04 107.725L1531.02 107.725L1601.89 96.421L1659.24 96.421ZM1581.13 96.421L1510.26 107.725L1458.94 107.725L1524.99 96.421L1581.13 96.421ZM1505.61 96.421L1439.56 107.725L1386.34 107.725L1446.22 96.421L1505.61 96.421ZM1428.6 96.421L1368.71 107.725L1320.1 107.725L1373.41 96.421L1428.6 96.421ZM1357.64 96.421L1304.33 107.725L1248.49 107.725L1295.96 96.421L1357.64 96.421ZM1281.85 96.421L1234.37 107.725L1175.61 107.725L1216.95 96.421L1281.85 96.421ZM1204.56 96.421L1163.21 107.725L1095.87 107.725L1131.66 96.421L1204.56 96.421ZM1120.87 96.421L1085.08 107.725L1023.13 107.725L1052.66 96.421L1120.87 96.421ZM1043.58 96.421L1014.05 107.725L956.176 107.725L979.109 96.421L1043.58 96.421ZM971.786 96.421L948.852 107.725L889.196 107.725L905.542 96.4211L971.786 96.421ZM899.865 96.4211L883.519 107.725L822.273 107.725L832.022 96.4211L899.865 96.4211ZM827.755 96.4211L818.006 107.725L755.366 107.725L758.52 96.4211L827.755 96.4211ZM755.134 96.4211L751.981 107.725L688.429 107.725L684.984 96.4211L755.134 96.4211ZM681.577 96.4211L685.021 107.725L622.489 107.725L612.445 96.4211L681.577 96.4211ZM608.123 96.4211L618.167 107.725L555.726 107.725L539.094 96.4211L608.123 96.4211ZM533.349 96.4211L549.981 107.725L489.013 107.725L465.691 96.4211L533.349 96.4211ZM375.168 93.1515L336.687 78.4485L261.219 78.4485L307.511 93.1515L375.168 93.1515ZM228.565 93.1515L296.71 93.1515L250.418 78.4485L174.382 78.4485L228.565 93.1515ZM216.08 93.1515L161.897 78.4485L88.4519 78.4485L150.481 93.1515L216.08 93.1515ZM136.305 93.1515L74.2759 78.4485L2.21045 78.4485L72.1497 93.1515L136.305 93.1515ZM56.2568 93.1515L-13.6824 78.4485L-84.4592 78.4485L-6.52197 93.1515L56.2568 93.1515ZM-24.1589 93.1515L-102.096 78.4485H-170.187L-84.4229 93.1515L-24.1589 93.1515ZM-103.773 93.1515L-189.537 78.4485L-257.263 78.4485L-163.351 93.1515L-103.773 93.1515ZM-184.49 93.1515L-278.402 78.4485L-343.378 78.4485L-241.615 93.1515L-184.49 93.1515ZM-264.48 93.1515L-366.244 78.4485H-430.356L-320.543 93.1516L-264.48 93.1515ZM-345.18 93.1516L-454.993 78.4485H-518.008L-400.083 93.1516L-345.18 93.1516ZM-426.51 93.1516L-544.435 78.4485L-605.075 78.4485L-479.047 93.1516L-426.51 93.1516ZM-507.263 93.1516L-633.291 78.4485L-689.969 78.4485L-556.192 93.1516L-507.263 93.1516ZM-586.12 93.1516L-719.898 78.4486H-778.293L-636.226 93.1516L-586.12 93.1516ZM-667.987 93.1516L-810.054 78.4486L-886.598 78.4486L-741.599 93.1516L-667.987 93.1516ZM-774.008 93.1516L-919.007 78.4486L-973.12 78.4486L-820.171 93.1516L-774.008 93.1516ZM2228.38 93.1513L2385.77 78.4483L2332.68 78.4483L2183.49 93.1513L2228.38 93.1513ZM2150.16 93.1513L2299.35 78.4483L2244.19 78.4483L2103.06 93.1513L2150.16 93.1513ZM2071.51 93.1513L2212.64 78.4483L2158.8 78.4483L2025.13 93.1513L2071.51 93.1513ZM1995.23 93.1513L2128.89 78.4483L2069.27 78.4483L1943.87 93.1514L1995.23 93.1513ZM1915.79 93.1514L2041.2 78.4483L1980.88 78.4483L1863.53 93.1514L1915.79 93.1514ZM1837.22 93.1514L1954.58 78.4483L1894.55 78.4483L1784.84 93.1514L1837.22 93.1514ZM1760.22 93.1514L1869.93 78.4483L1806.44 78.4483L1704.72 93.1514L1760.22 93.1514ZM1681.86 93.1514L1783.58 78.4483L1714.58 78.4483L1622.39 93.1514L1681.86 93.1514ZM1601.63 93.1514L1693.82 78.4483L1630.01 78.4483L1544.1 93.1514L1601.63 93.1514ZM1524.72 93.1514L1610.63 78.4483L1541.44 78.4484L1463.54 93.1514L1524.72 93.1514ZM1445.92 93.1514L1523.81 78.4484L1458.17 78.4484L1388.83 93.1514L1445.92 93.1514ZM1373.06 93.1514L1442.41 78.4484L1371.44 78.4484L1309.69 93.1514L1373.06 93.1514ZM1295.58 93.1514L1357.33 78.4484L1282.69 78.4484L1228.91 93.1514L1295.58 93.1514ZM1216.51 93.1514L1270.29 78.4484L1188.57 78.4484L1142.02 93.1514L1216.51 93.1514ZM1131.22 93.1514L1177.77 78.4484L1099.61 78.4484L1061.2 93.1514L1131.22 93.1514ZM1052.12 93.1514L1090.53 78.4484L1015.57 78.4484L985.743 93.1514L1052.12 93.1514ZM978.419 93.1514L1008.25 78.4484L931.531 78.4484L910.27 93.1514L978.419 93.1514ZM904.593 93.1514L925.854 78.4484L847.523 78.4484L834.842 93.1515L904.593 93.1514ZM830.575 93.1515L843.256 78.4484L763.533 78.4484L759.432 93.1515L830.575 93.1515ZM756.046 93.1515L760.148 78.4484L679.508 78.4484L683.988 93.1515L756.046 93.1515ZM680.581 93.1515L676.101 78.4484L596.476 78.4484L609.54 93.1515L680.581 93.1515ZM605.218 93.1515L592.154 78.4484L512.651 78.4484L534.284 93.1515L605.218 93.1515ZM528.539 93.1515L506.905 78.4484L428.609 78.4485L458.945 93.1515L528.539 93.1515ZM250.925 75.1789L328.13 75.1789L280.734 57.0695L193.908 57.0695L250.925 75.1789ZM183.107 57.0695L240.124 75.1789L162.333 75.1789L95.5964 57.0695L183.107 57.0695ZM83.1116 57.0695L149.848 75.1789L74.6582 75.1789L-1.7417 57.0695L83.1116 57.0695ZM-15.9177 57.0695L60.4822 75.1789L-13.3423 75.1789L-99.4849 57.0695L-15.9177 57.0695ZM-115.378 57.0695L-29.2351 75.1789L-101.791 75.1789L-197.784 57.0695H-115.378ZM-215.422 57.0695L-119.428 75.1789H-189.259L-294.892 57.0695H-215.422ZM-314.242 57.0695L-208.608 75.1789L-278.147 75.1789L-393.817 57.0695L-314.242 57.0695ZM-414.956 57.0695L-299.286 75.1789L-366.008 75.1789L-491.348 57.0695L-414.956 57.0695ZM-514.213 57.0695L-388.873 75.1789L-454.776 75.1789L-590.03 57.0695L-514.213 57.0695ZM-614.667 57.0695L-479.413 75.1789L-544.232 75.1789L-689.479 57.0695L-614.667 57.0695ZM-715.905 57.0695L-570.659 75.1789L-633.101 75.1789L-788.328 57.0695L-715.905 57.0695ZM-816.544 57.0695L-661.317 75.1789L-719.718 75.179L-884.49 57.0695H-816.544ZM-914.418 57.0695L-749.647 75.179L-809.885 75.179L-984.867 57.0695H-914.418ZM-1016.63 57.0695L-841.646 75.179L-918.842 75.179L-1097.44 57.0695H-1016.63ZM-1129.84 57.0695L-951.252 75.179L-1007.13 75.179H-1007.17L-1195.52 57.0695L-1129.84 57.0695ZM2614.62 57.0695L2420.77 75.1787L2365.86 75.1787L2549.61 57.0695L2614.62 57.0695ZM2516.27 57.0695L2332.52 75.1787L2275.58 75.1787L2449.4 57.0695L2516.27 57.0695ZM2417.85 57.0695L2244.02 75.1787L2188.52 75.1787L2353.15 57.0695H2417.85ZM2323.24 57.0695L2158.62 75.1787L2097.16 75.1787L2251.61 57.0695H2323.24ZM2223.53 57.0695L2069.08 75.1787L2006.98 75.1787L2151.52 57.0695H2223.53ZM2125.22 57.0695L1980.68 75.1787L1918.94 75.1787L2054.07 57.0695L2125.22 57.0695ZM2029.45 57.0695L1894.33 75.1787L1829.06 75.1787L1954.34 57.0695L2029.45 57.0695ZM1931.49 57.0695L1806.2 75.1787L1735.08 75.1787L1848.62 57.0695L1931.49 57.0695ZM1827.86 57.0695L1714.32 75.1787L1649.12 75.1787L1754.93 57.0695L1827.86 57.0695ZM1735.55 57.0695L1629.73 75.1787L1558.76 75.1787L1654.7 57.0695H1735.55ZM1637.07 57.0695L1541.13 75.1787L1473.59 75.1788L1559 57.0695H1637.07ZM1543.23 57.0695L1457.83 75.1788L1385.17 75.1788L1461.23 57.0695L1543.23 57.0695ZM1447.11 57.0695L1371.06 75.1788L1294.64 75.1788L1360.88 57.0695L1447.11 57.0695ZM1348.48 57.0695L1282.25 75.1788L1198.92 75.1788L1256.26 57.0695L1348.48 57.0695ZM1245.46 57.0695L1188.13 75.1788L1108.15 75.1788L1155.46 57.0695L1245.46 57.0695ZM1146.38 57.0695L1099.07 75.1788L1022.21 75.1788L1058.95 57.0695L1146.38 57.0695ZM1051.62 57.0695L1014.88 75.1788L936.26 75.1788L962.447 57.0695H1051.62ZM956.769 57.0695L930.582 75.1788L850.343 75.1788L865.962 57.0695H956.769ZM861.695 57.0695L846.076 75.1788L764.445 75.1788L769.497 57.0695L861.695 57.0695ZM766.112 57.0695L761.06 75.1788L678.512 75.1788L672.994 57.0695L766.112 57.0695ZM669.587 57.0695L675.105 75.1788L593.571 75.1788L577.48 57.0695L669.587 57.0695ZM573.158 57.0695L589.249 75.1788L507.84 75.1788L481.195 57.0695L573.158 57.0695ZM475.449 57.0695L502.094 75.1788L421.863 75.1788L384.5 57.0695H475.449ZM272.177 53.7999L221.599 34.4748L122.77 34.4748L183.614 53.7999L272.177 53.7999ZM172.813 53.7999L111.969 34.4748L12.3313 34.4748L83.5474 53.7999L172.813 53.7999ZM71.0625 53.7999L-0.153564 34.4748L-97.0642 34.4748L-15.5356 53.7999L71.0625 53.7999ZM-29.7117 53.7999L-111.24 34.4748L-206.963 34.4748L-115.038 53.7999L-29.7117 53.7999ZM-130.93 53.7999L-222.856 34.4748H-317.554L-215.116 53.7999L-130.93 53.7999ZM-232.753 53.7999L-335.191 34.4748H-426.689L-313.964 53.7999H-232.753ZM-333.314 53.7999L-446.039 34.4748H-538.136L-414.701 53.7999H-333.314ZM-435.84 53.7999L-559.275 34.4748H-647.731L-513.978 53.7999H-435.84ZM-536.843 53.7999L-670.596 34.4748H-758.784L-614.45 53.7999L-536.843 53.7999ZM-639.087 53.7999L-783.421 34.4748H-870.699L-715.702 53.7999L-639.087 53.7999ZM-742.129 53.7999L-897.125 34.4748L-982.001 34.4748L-816.354 53.7999L-742.129 53.7999ZM-844.57 53.7999L-1010.22 34.4748L-1090.07 34.4748L-914.239 53.7999L-844.57 53.7999ZM-944.167 53.7999L-1120 34.4748L-1203.19 34.4748L-1016.46 53.7999L-944.167 53.7999ZM-1048.22 53.7999L-1234.95 34.4748L-1320.26 34.4748L-1129.68 53.7999H-1048.22ZM-1162.09 53.7999L-1352.67 34.4748L-1430.56 34.4748L-1229.53 53.7999H-1162.09ZM2649.62 53.7999L2856.48 34.4748L2778.88 34.4748L2582.79 53.7999H2649.62ZM2549.45 53.7999L2745.54 34.4748L2666.28 34.4748L2480.79 53.7999H2549.45ZM2449.23 53.7999L2634.73 34.4748L2558.55 34.4748L2382.87 53.7999H2449.23ZM2352.97 53.7999L2528.65 34.4748L2444.32 34.4748L2279.5 53.7999L2352.97 53.7999ZM2251.42 53.7999L2416.24 34.4748L2331.87 34.4748L2177.62 53.7999L2251.42 53.7999ZM2151.32 53.7999L2305.57 34.4748L2222.67 34.4748L2078.47 53.7999L2151.32 53.7999ZM2053.85 53.7999L2198.05 34.4748L2110.66 34.4748L1976.96 53.7999L2053.85 53.7999ZM1954.11 53.7999L2087.8 34.4748L1990.28 34.4748L1869.12 53.7999L1954.11 53.7999ZM1848.36 53.7999L1969.52 34.4748H1886.95L1774.04 53.7999H1848.36ZM1754.65 53.7999L1867.57 34.4748H1774.41L1672.02 53.7999H1754.65ZM1654.4 53.7999L1756.78 34.4748H1665.56L1574.42 53.7999L1654.4 53.7999ZM1558.66 53.7999L1649.8 34.4748H1556.12L1474.96 53.7999L1558.66 53.7999ZM1460.85 53.7999L1542.01 34.4748L1443.51 34.4748L1372.83 53.7999L1460.85 53.7999ZM1360.44 53.7999L1431.12 34.4748L1327.8 34.4748L1266.61 53.7999L1360.44 53.7999ZM1255.82 53.7999L1317.01 34.4748L1214.49 34.4748L1164.01 53.7999L1255.82 53.7999ZM1154.93 53.7999L1205.41 34.4748L1104.79 34.4748L1065.58 53.7999L1154.93 53.7999ZM1058.26 53.7999L1097.46 34.4748L995.12 34.4748L967.175 53.7999H1058.26ZM961.497 53.7999L989.443 34.4748L885.449 34.4748L868.782 53.7999L961.497 53.7999ZM864.515 53.7999L881.182 34.4748L775.8 34.4748L770.409 53.7999L864.515 53.7999ZM767.024 53.7999L772.415 34.4748L666.11 34.4748L671.998 53.7999L767.024 53.7999ZM668.591 53.7999L662.702 34.4748L557.404 34.4748L574.574 53.7999L668.591 53.7999ZM570.253 53.7999L553.082 34.4748L447.95 34.4748L476.384 53.7999L570.253 53.7999ZM470.639 53.7999L442.205 34.4748L337.882 34.4748L377.754 53.7999H470.639ZM222.135 31.2052L323.711 31.2052L270.507 5.41788L271.053 4.60164H152.508L222.135 31.2052ZM143.652 4.69244L213.042 31.2052L112.476 31.2052L28.7158 4.60164L143.7 4.60164L143.652 4.69244ZM17.9148 4.60164L101.675 31.2052L0.282227 31.2052L-97.7563 4.60164H17.9148ZM-110.241 4.60164L-12.2026 31.2052L-110.858 31.2052L-223.093 4.60164L-110.241 4.60164ZM-237.269 4.60164L-125.034 31.2052L-222.516 31.2052L-349.063 4.60164H-237.269ZM-364.956 4.60164L-238.409 31.2052L-334.885 31.2052L-475.905 4.60164L-364.956 4.60164ZM-493.542 4.60164L-352.522 31.2052L-445.761 31.2052L-600.942 4.60164H-493.542ZM-620.292 4.60164L-465.111 31.2052L-559.02 31.2052L-728.945 4.60164H-620.292ZM-750.083 4.60164L-580.158 31.2052L-670.361 31.2052L-854.49 4.60164L-750.083 4.60164ZM-877.355 4.60164L-693.226 31.2052H-783.204L-981.898 4.60164H-877.355ZM-1006.54 4.60164L-807.841 31.2052H-896.922L-1110.3 4.60164L-1006.54 4.60164ZM-1136.72 4.60164L-923.349 31.2052H-1010.03L-1238.06 4.60164H-1136.72ZM-1266.28 4.60164L-1038.24 31.2052H-1119.82L-1361.88 4.60164L-1266.28 4.60164ZM-1391.8 4.60164L-1149.75 31.2052H-1234.78L-1491.83 4.60164H-1391.8ZM-1523.33 4.62875L-1266.54 31.2052H-1352.51L-1614.87 4.60164L-1523.33 4.60164L-1523.33 4.62875ZM-1647.28 4.60164L-1384.92 31.2052H-1464.57L-1741.32 4.60164H-1647.28ZM3176.26 4.60164L2891.48 31.2052L2812.05 31.2052L3082 4.60164L3176.26 4.60164ZM3048.66 4.60164L2778.72 31.2052L2697.67 31.2052L2953.03 4.60164H3048.66ZM2921.47 4.60164L2666.11 31.2052H2588.28L2830.12 4.60164L2921.47 4.60164ZM2800.22 4.60164L2558.37 31.2052H2472.21L2699.11 4.60164H2800.22ZM2671.03 4.60164L2444.13 31.2052H2357.97L2570.31 4.60164L2671.03 4.60164ZM2544.01 4.60164L2331.67 31.2052H2247.06L2445.57 4.60164H2544.01ZM2420.96 4.60164L2222.45 31.2052H2133.28L2317.33 4.60164L2420.96 4.60164ZM2294.48 4.60164L2110.42 31.2052H2010.78L2177.58 4.60164H2294.48ZM2156.82 4.60164L1990.02 31.2052H1906.06L2061.51 4.60164H2156.82ZM2042.13 4.60164L1886.68 31.2052L1791.73 31.2052L1932.67 4.60164L2042.13 4.60164ZM1915.04 4.60164L1774.1 31.2052L1680.98 31.2052L1806.45 4.60164H1915.04ZM1790.69 4.60164L1665.22 31.2052L1569.85 31.2052L1681.58 4.60164L1790.69 4.60164ZM1667.47 4.60164L1555.74 31.2052L1455.47 31.2052L1552.77 4.60164H1667.47ZM1540.38 4.60164L1443.08 31.2052L1338.15 31.2052L1422.39 4.60164L1540.38 4.60164ZM1411.59 4.60164L1327.36 31.2052L1223.03 31.2052L1292.54 4.60164H1411.59ZM1283.46 4.60164L1213.95 31.2052L1111.42 31.2052L1165.39 4.60164L1283.46 4.60164ZM1158.07 4.60164L1104.1 31.2052L999.848 31.2052L1038.32 4.60164H1158.07ZM1032.64 4.60164L994.171 31.2052L888.269 31.2052L911.214 4.60164L1032.64 4.60164ZM906.947 4.60164L884.002 31.2052L776.712 31.2052L784.133 4.60164H906.947ZM780.748 4.60164L773.326 31.2052L665.114 31.2052L657.008 4.60164H780.748ZM653.6 4.60164L661.706 31.2052L554.498 31.2052L530.86 4.60164L653.6 4.60164ZM526.538 4.60164L550.177 31.2052L443.139 31.2052L403.996 4.60164H526.538Z" fill="url(#paint0_linear_1080_562)"/>
<defs>
<linearGradient id="paint0_linear_1080_562" x1="720" y1="155.42" x2="720" y2="7.62939e-05" gradientUnits="userSpaceOnUse">
<stop stop-color="#DADADA" stop-opacity="0"/>
<stop offset="1" stop-color="#D6D6D6"/>
</linearGradient>
</defs>
</svg>
