<svg width="1296" height="123" viewBox="0 0 1296 123" fill="none" xmlns="http://www.w3.org/2000/svg">
<path fill-rule="evenodd" clip-rule="evenodd" d="M204.248 -27.8184L259.136 -1.21497L365.394 -1.21497L326.608 -27.5755L326.836 -27.8184L204.248 -27.8184ZM298.329 21.3797L258.457 2.05464L158.693 2.05464L209.271 21.3797H298.329ZM305.075 24.6493L342.438 42.7588L265.224 42.7588L217.828 24.6493L305.075 24.6493ZM379.52 60.7314L349.184 46.0284L273.781 46.0284L312.262 60.7314L379.52 60.7314ZM386.266 64.001L409.587 75.3047L350.404 75.3047L320.82 64.0011L386.266 64.001ZM439.651 89.8759L416.333 78.5743L358.961 78.5743L388.54 89.8759L439.651 89.8759ZM446.397 93.1455L469.717 104.448L426.678 104.448L397.097 93.1455L446.397 93.1455ZM499.782 119.02L476.463 107.718L435.236 107.718L464.817 119.02L499.782 119.02ZM506.528 122.29L507.994 123L508.469 122.29L1162.75 122.29L1162.79 122.552L1164.43 122.29L1540.83 122.29V121.519L1688.56 107.718L1695.97 107.718V107.025L1844.55 93.1454H1850.78V92.5639L2000.53 78.5741H2007.93V77.8825L2156.53 64.0009H2163.09V63.3884L2348.92 46.0282H2356.39V45.3302L2577.77 24.6493H2582.8V24.1793L2819.64 2.05464H2833.49V0.760315L3139.41 -27.8184H3147.96V-28.6165L3148.01 -28.6217L3147.96 -29.2222V-31.088H3147.78L3147.71 -31.8772L3139.26 -31.088L3019.55 -31.088L3019.46 -32.0361L3009.84 -31.088H2891.33L2891.22 -32.1673L2880.86 -31.088L2762.99 -31.088L2762.93 -31.6366L2757.94 -31.088H2635.31L2635.2 -32.0594L2626.91 -31.088L2507.07 -31.088L2506.93 -32.1942L2498.1 -31.088H2378.76L2378.67 -31.8003L2373.35 -31.088L2250.49 -31.088L2250.38 -31.8516L2245.09 -31.088H2108.9L2108.81 -31.6445L2105.32 -31.088L1997.24 -31.088L1997.01 -32.4201L1989.23 -31.088L1867.53 -31.088L1867.28 -32.3935L1860.36 -31.088H1737.87L1737.71 -31.8523L1734.1 -31.088L1609.85 -31.088L1609.81 -31.2347L1609.2 -31.088H1481.91L1481.8 -31.4891L1480.33 -31.088L1353.79 -31.088L1353.32 -32.1555L1349.94 -31.088H1224L1223.32 -32.3608L1220 -31.088L1095.77 -31.088L1095 -32.2193L1092.7 -31.088H967.182L966.461 -31.8433L965.369 -31.088L838.092 -31.088L837.881 -31.2202L837.767 -31.088L-53.5781 -31.088L-55.6877 -31.7581L-55.9006 -31.088H-181.805L-183.698 -31.6017L-183.838 -31.088L-308.887 -31.088L-311.563 -31.7225L-311.714 -31.088H-436.616L-439.668 -31.7297L-439.803 -31.088L-565.236 -31.088L-567.76 -31.5643L-567.85 -31.088L-692.013 -31.088L-696.207 -31.8069L-696.33 -31.088H-821.828L-824.573 -31.5178L-824.641 -31.088L-949.119 -31.088L-952.827 -31.6237L-952.905 -31.088H-1078.32L-1081.25 -31.48L-1081.3 -31.088L-1208.52 -31.088L-1209.63 -31.2268L-1209.65 -31.088H-1338.09L-1338.24 -31.1052L-1338.24 -31.088L-1463.62 -31.088L-1466.53 -31.4068L-1466.56 -31.088L-1719.11 -31.088L-1723.35 -31.5185L-1723.4 -31.088L-1847.33 -31.088L-1851.7 -31.5084L-1851.74 -31.088H-1851.98V-28.6447L-1852.01 -28.2538L-1851.98 -28.2502V-27.8184H-1847.48L-1546.22 1.14207V2.05464H-1536.73L-1302.78 24.5444V24.6493H-1301.69L-892.379 64.0012H-892.327L-286.07 122.281V122.29H-285.974L-284.936 122.39L-284.926 122.29L-238.926 122.29L-238.047 122.379L-238.038 122.29L-145.181 122.29L-144.285 122.383L-144.276 122.29L-98.0195 122.29L-97.408 122.357L-97.4006 122.29L-51.6055 122.29L-50.5542 122.413L-50.5398 122.29L-4.77979 122.29L-3.67529 122.428L-3.6582 122.29L42.5845 122.29L43.2048 122.373L43.2161 122.29L89.5818 122.29L90.0662 122.36L90.0762 122.29L136.703 122.29L136.938 122.327L136.944 122.29L183.304 122.29L183.787 122.373L183.802 122.29L230.149 122.29L230.646 122.384L230.663 122.29L277.078 122.29L277.492 122.377L277.51 122.29L324.009 122.29L324.35 122.371L324.369 122.29L370.934 122.29L371.173 122.355L371.191 122.29L464.28 122.29L465.573 122.784L465.834 122.29L506.528 122.29ZM358.885 119.02L317.233 107.718L276.707 107.718L324.391 119.02L358.885 119.02ZM310.215 119.02L262.531 107.718L223.654 107.718L277.418 119.02L310.215 119.02ZM261.525 119.02L207.761 107.718L170.542 107.718L230.455 119.02L261.525 119.02ZM212.818 119.02L152.905 107.718L117.653 107.718L183.582 119.02L212.818 119.02ZM164.232 119.02L98.3032 107.718L64.7644 107.718L136.958 119.02L164.232 119.02ZM115.819 119.02L43.6262 107.718L11.5889 107.718L89.8169 119.02L115.819 119.02ZM66.9521 119.02L-11.2761 107.718L-41.6138 107.718L42.8025 119.02L66.9521 119.02ZM18.1646 119.02L-66.2517 107.718L-95.2295 107.718L-4.5769 119.02L18.1646 119.02ZM-31.0034 119.02L-121.656 107.718L-148.297 107.718L-51.4153 119.02L-31.0034 119.02ZM-79.6311 119.02L-176.513 107.718L-200.679 107.718L-97.8403 119.02L-79.6311 119.02ZM-127.769 119.02L-230.607 107.718L-254.224 107.718L-145.012 119.02L-127.769 119.02ZM-176.773 119.02L-285.984 107.718L-350.225 107.718L-238.76 119.021L-176.773 119.02ZM-271.17 119.021L-382.635 107.718L-403.393 107.718L-285.817 119.021L-271.17 119.021ZM371.37 119.02L329.718 107.718L372.644 107.718L408.23 119.02L371.37 119.02ZM419.031 119.02L455.723 119.02L426.141 107.718L383.445 107.718L419.031 119.02ZM1538.95 119.02L1538.9 118.415L1653.41 107.718L1634.72 107.718L1520.04 119.02L1538.95 119.02ZM1490.59 119.02L1490.55 118.641L1601.39 107.718L1580.06 107.718L1471.56 119.02L1490.59 119.02ZM1443.68 119.02L1443.64 118.642L1548.5 107.718L1525.99 107.718L1423.24 119.02L1443.68 119.02ZM1396.79 119.02L1396.75 118.644L1496.08 107.718L1471.13 107.718L1374.73 119.02L1396.79 119.02ZM1349.88 119.02L1349.83 118.647L1443.05 107.718L1416.49 107.718L1326.27 119.02L1349.88 119.02ZM1302.97 119.02L1302.93 118.65L1390.19 107.718L1362.23 107.718L1277.9 119.02L1302.97 119.02ZM1256.07 119.02L1256.02 118.654L1337.62 107.718L1307.65 107.718L1229.45 119.02L1256.07 119.02ZM1209.15 119.02L1209.1 118.658L1284.79 107.718L1255.8 107.718L1184.93 119.02L1209.15 119.02ZM1164.17 119.02L1235.04 107.718L1197.55 107.718L1131.51 119.02L1164.17 119.02ZM1115.34 119.02L1115.25 118.486L1178.17 107.718L1142.62 107.718L1082.74 119.02L1115.34 119.02ZM1068.42 119.02L1068.3 118.417L1124.99 107.718L1095.23 107.718L1041.92 119.02L1068.42 119.02ZM1026.16 119.02L1079.46 107.718L1040.36 107.718L992.893 119.02L1026.16 119.02ZM978.777 119.02L1026.25 107.718L985.062 107.718L943.724 119.02L978.777 119.02ZM931.741 119.02L931.712 118.915L972.666 107.718L921.243 107.718L885.456 119.02L931.741 119.02ZM876.682 119.02L876.437 118.459L910.447 107.718L866.447 107.718L836.918 119.02L876.682 119.02ZM830.238 119.02L829.834 118.257L857.367 107.718L818.415 107.718L795.484 119.02L830.238 119.02ZM789.721 119.02L789.329 118.444L811.091 107.718L770.324 107.718L753.98 119.02L789.721 119.02ZM748.991 119.02L748.717 118.734L764.647 107.718L722.317 107.718L712.569 119.02L748.991 119.02ZM708.302 119.02L718.05 107.718L674.324 107.718L671.171 119.02L708.302 119.02ZM667.786 119.02L670.939 107.718L626.305 107.718L629.749 119.02L667.786 119.02ZM626.341 119.02L622.897 107.718L579.289 107.718L589.331 119.02L626.341 119.02ZM585.01 119.02L574.967 107.718L531.417 107.718L548.047 119.02L585.01 119.02ZM542.302 119.02L507.207 119.02L483.887 107.718L525.672 107.718L542.302 119.02ZM388.003 93.1455L417.584 104.448L373.151 104.448L337.565 93.1456L388.003 93.1455ZM362.35 104.448L317.668 104.448L276.016 93.1456L326.764 93.1456L362.35 104.448ZM263.531 93.1456L305.184 104.448L262.914 104.448L215.23 93.1456L263.531 93.1456ZM201.054 93.1456L248.738 104.448L208.101 104.448L154.337 93.1456L201.054 93.1456ZM138.444 93.1456L192.208 104.448L153.211 104.448L93.2981 93.1456L138.444 93.1456ZM75.6611 93.1456L135.574 104.448L98.5811 104.448L32.6519 93.1456L75.6611 93.1456ZM13.302 93.1456L79.2312 104.448L43.8806 104.448L-28.3125 93.1456L13.302 93.1456ZM-49.4509 93.1456L22.7422 104.448L-11.0408 104.448L-89.269 93.1456L-49.4509 93.1456ZM-112.134 93.1456L-33.9058 104.448L-66.0337 104.448L-150.45 93.1456L-112.134 93.1456ZM-175.088 93.1456L-90.6714 104.448L-121.453 104.448L-212.106 93.1456L-175.088 93.1456ZM-238.532 93.1456L-147.88 104.448L-176.323 104.448L-273.205 93.1456L-238.532 93.1456ZM-301.421 93.1456L-204.539 104.448L-230.428 104.448L-333.267 93.1456L-301.421 93.1456ZM-363.195 93.1456L-260.356 104.448L-285.816 104.448L-395.027 93.1456L-363.195 93.1456ZM-426.788 93.1456L-317.577 104.448L-382.47 104.448L-493.935 93.1456L-426.788 93.1456ZM-526.345 93.1456L-414.88 104.448L-437.361 104.448V104.453L-554.981 93.1456L-526.345 93.1456ZM1809.4 93.1454L1688.41 104.448L1667.9 104.448L1782.59 93.1454L1809.4 93.1454ZM1749.25 93.1454L1634.56 104.448L1611.44 104.448L1719.93 93.1454L1749.25 93.1454ZM1688.38 93.1454L1579.89 104.448L1555.71 104.448L1658.46 93.1454L1688.38 93.1454ZM1628.56 93.1454L1525.81 104.448L1499.01 104.448L1595.41 93.1454L1628.56 93.1454ZM1567.34 93.1454L1470.94 104.448L1442.59 104.448L1532.8 93.1454L1567.34 93.1454ZM1506.5 93.1455L1416.29 104.448L1386.63 104.448L1470.97 93.1455L1506.5 93.1455ZM1446.35 93.1455L1362.02 104.448L1330.27 104.448L1408.46 93.1455L1446.35 93.1455ZM1385.61 93.1455L1307.41 104.448L1276.3 104.448L1347.16 93.1455L1385.61 93.1455ZM1326.4 93.1455L1255.54 104.448L1216.65 104.448L1282.7 93.1455L1326.4 93.1455ZM1263.31 93.1455L1197.27 104.448L1159.94 104.448L1219.82 93.1455L1263.31 93.1455ZM1202.19 93.1455L1142.31 104.448L1110.65 104.448L1163.95 93.1455L1202.19 93.1455ZM1148.19 93.1455L1094.89 104.448L1054.09 104.448L1101.56 93.1455L1148.19 93.1455ZM1087.45 93.1455L1039.98 104.448L997.021 104.448L1038.36 93.1455L1087.45 93.1455ZM1025.96 93.1455L984.624 104.448L931.596 104.448L967.383 93.1455L1025.96 93.1455ZM956.587 93.1455L920.799 104.448L874.989 104.448L904.517 93.1455L956.587 93.1455ZM895.437 93.1455L865.909 104.448L825.048 104.448L847.979 93.1455L895.437 93.1455ZM840.656 93.1455L817.725 104.448L775.052 104.448L791.397 93.1455L840.656 93.1455ZM785.719 93.1455L769.375 104.448L725.137 104.448L734.885 93.1455L785.719 93.1455ZM730.618 93.1455L720.87 104.448L675.236 104.448L678.389 93.1455L730.618 93.1455ZM675.004 93.1455L671.851 104.448L625.308 104.448L621.865 93.1455L675.004 93.1455ZM618.457 93.1455L621.901 104.448L576.383 104.448L566.341 93.1455L618.457 93.1455ZM562.019 93.1455L572.062 104.448L526.606 104.448L509.976 93.1455L562.019 93.1455ZM504.231 93.1455L520.861 104.448L477.142 104.448L453.822 93.1455L504.231 93.1455ZM379.446 89.8759L327.271 89.8759L291.688 78.5743L349.867 78.5743L379.446 89.8759ZM316.47 89.8759L280.887 78.5743L222.319 78.5743L263.967 89.876L316.47 89.8759ZM251.482 89.876L209.834 78.5743L153.757 78.5743L201.436 89.876L251.482 89.876ZM187.26 89.876L139.581 78.5743L85.0242 78.5743L138.784 89.876L187.26 89.876ZM122.891 89.876L69.1316 78.5743L16.0591 78.5743L75.9666 89.876L122.891 89.876ZM58.3296 89.876L-1.57788 78.5743L-52.3435 78.5743L13.5801 89.876L58.3296 89.876ZM-5.76978 89.876L-71.6934 78.5743L-121.383 78.5743L-49.1963 89.876L-5.76978 89.876ZM-70.3347 89.876L-142.522 78.5743L-190.12 78.5743L-111.899 89.876L-70.3347 89.876ZM-134.764 89.876L-212.985 78.5743L-259.279 78.5743L-174.87 89.876H-134.764ZM-199.508 89.876L-283.917 78.5743L-328.974 78.5743L-238.329 89.876L-199.508 89.876ZM-264.756 89.876L-355.401 78.5743L-398.104 78.5743L-301.23 89.876H-264.756ZM-329.446 89.876L-426.32 78.5743L-465.845 78.5744L-363.016 89.876L-329.446 89.876ZM-392.944 89.876L-495.774 78.5744L-535.821 78.5744L-426.619 89.876L-392.944 89.876ZM-458.38 89.876L-567.581 78.5744L-637.635 78.5744L-526.179 89.876L-458.38 89.876ZM-558.589 89.876L-670.044 78.5744L-706.559 78.5744L-588.966 89.876L-558.589 89.876ZM1844.4 89.8758L1965.38 78.5741L1930.44 78.5741L1815.76 89.8758L1844.4 89.8758ZM1782.43 89.8758L1897.1 78.5741H1859.8L1751.31 89.8758H1782.43ZM1719.76 89.8758L1828.24 78.5742L1790.93 78.5742L1688.18 89.8758L1719.76 89.8758ZM1658.28 89.8758L1761.02 78.5742L1719.69 78.5742L1623.3 89.8758L1658.28 89.8758ZM1595.22 89.8758L1691.61 78.5742L1649.11 78.5742L1558.9 89.8758L1595.22 89.8758ZM1532.6 89.8758L1622.81 78.5742L1579.7 78.5742L1495.37 89.8758L1532.6 89.8758ZM1470.75 89.8759L1555.08 78.5742L1509.27 78.5742L1431.08 89.8759L1470.75 89.8759ZM1408.23 89.8759L1486.42 78.5742L1438.52 78.5742L1367.66 89.8759L1408.23 89.8759ZM1346.9 89.8759L1417.76 78.5742L1367.84 78.5742L1301.8 89.8759L1346.9 89.8759ZM1282.42 89.8759L1348.46 78.5742L1297.01 78.5742L1237.14 89.8759L1282.42 89.8759ZM1219.51 89.8759L1279.39 78.5742L1232.68 78.5742L1179.37 89.8759L1219.51 89.8759ZM1163.61 89.8759L1216.91 78.5742L1162.76 78.5742L1115.29 89.8759L1163.61 89.8759ZM1101.18 89.8759L1148.64 78.5742L1091.65 78.5742L1050.32 89.8759L1101.18 89.8759ZM1037.92 89.8759L1079.25 78.5742L1013.52 78.5742L977.736 89.8759L1037.92 89.8759ZM966.939 89.8759L1002.72 78.5742L942.584 78.5742L913.059 89.8759L966.939 89.8759ZM903.979 89.8759L933.505 78.5742L877.542 78.5742L854.613 89.8759L903.979 89.8759ZM847.289 89.8759L870.219 78.5742L812.468 78.5742L796.125 89.8759L847.289 89.8759ZM790.448 89.8759L806.791 78.5742L747.453 78.5742L737.705 89.8759L790.448 89.8759ZM733.438 89.8759L743.186 78.5742L682.454 78.5742L679.301 89.8759L733.438 89.8759ZM675.916 89.8759L679.068 78.5742L617.425 78.5743L620.868 89.8759L675.916 89.8759ZM617.461 89.8759L614.017 78.5743L553.393 78.5743L563.435 89.8759L617.461 89.8759ZM559.114 89.8759L549.072 78.5743L488.537 78.5743L505.165 89.8759L559.114 89.8759ZM499.42 89.8759L482.792 78.5743L423.758 78.5743L447.076 89.8759L499.42 89.8759ZM311.725 64.0011L341.309 75.3047L281.394 75.3047L245.805 64.0011L311.725 64.0011ZM235.004 64.0011L270.593 75.3047L210.27 75.3047L168.614 64.0011L235.004 64.0011ZM156.129 64.0011L197.785 75.3047L139.963 75.3047L92.2751 64.0011L156.129 64.0011ZM78.0994 64.0011L125.787 75.3047L69.4714 75.3047L15.7024 64.0011L78.0994 64.0011ZM-0.190186 64.0011L53.5786 75.3047L-1.27222 75.3047L-61.1902 64.0011L-0.190186 64.0011ZM-78.8271 64.0011L-18.9092 75.3047L-71.4155 75.3047L-137.35 64.0011L-78.8271 64.0011ZM-156.7 64.0011L-90.7654 75.3047L-142.267 75.3047L-214.467 64.0011L-156.7 64.0011ZM-290.985 64.0011L-235.605 64.0011L-163.406 75.3047L-212.75 75.3047L-290.985 64.0011ZM-313.85 64.0011L-235.615 75.3047L-283.699 75.3047L-368.122 64.0011L-313.85 64.0011ZM-392.76 64.0011L-308.336 75.3047L-355.198 75.3047L-445.858 64.0011L-392.76 64.0011ZM-472.285 64.0011L-381.625 75.3047L-426.13 75.3047L-523.02 64.0011L-472.285 64.0011ZM-551.236 64.0011L-454.346 75.3047L-495.594 75.3047L-598.442 64.0011L-551.236 64.0011ZM-628.37 64.0011L-525.523 75.3047L-567.413 75.3048L-676.633 64.0011L-628.37 64.0011ZM-708.394 64.0011L-599.174 75.3048L-669.879 75.3048L-781.354 64.0011L-708.394 64.0011ZM-813.763 64.0012L-702.289 75.3048L-740.512 75.3048V75.3105L-858.158 64.0012L-813.763 64.0012ZM2121.38 64.0009L2000.38 75.3045L1963.62 75.3045L2078.31 64.0009L2121.38 64.0009ZM2044.98 64.0009L1930.28 75.3045L1891.18 75.3045L1999.68 64.0009L2044.98 64.0009ZM1968.13 64.0009L1859.63 75.3045L1820.65 75.3045L1923.41 64.0009L1968.13 64.0009ZM1893.51 64.0009L1790.75 75.3045L1747.58 75.3046L1843.98 64.0009L1893.51 64.0009ZM1815.91 64.0009L1719.5 75.3046L1675.2 75.3046L1765.43 64.0009L1815.91 64.0009ZM1739.13 64.0009L1648.9 75.3046L1604.09 75.3046L1688.44 64.0009L1739.13 64.0009ZM1663.82 64.0009L1579.48 75.3046L1531.89 75.3046L1610.09 64.0009L1663.82 64.0009ZM1587.24 64.0009L1509.04 75.3046L1459.02 75.3046L1529.89 64.0009L1587.24 64.0009ZM1509.13 64.0009L1438.26 75.3046L1386.94 75.3046L1452.99 64.001L1509.13 64.0009ZM1433.61 64.001L1367.56 75.3046L1314.34 75.3046L1374.22 64.001L1433.61 64.001ZM1356.59 64.001L1296.71 75.3046L1248.1 75.3046L1301.41 64.001L1356.59 64.001ZM1285.64 64.001L1232.33 75.3046L1176.49 75.3046L1223.96 64.001L1285.64 64.001ZM1209.85 64.001L1162.37 75.3046L1103.61 75.3046L1144.95 64.001L1209.85 64.001ZM1132.55 64.001L1091.21 75.3046L1023.87 75.3046L1059.66 64.001L1132.55 64.001ZM1048.87 64.001L1013.08 75.3046L951.126 75.3046L980.657 64.001L1048.87 64.001ZM971.578 64.001L942.047 75.3046L884.176 75.3046L907.109 64.001L971.578 64.001ZM899.785 64.001L876.852 75.3046L817.196 75.3046L833.542 64.001L899.785 64.001ZM827.864 64.001L811.519 75.3046L750.273 75.3046L760.022 64.001L827.864 64.001ZM755.755 64.001L746.006 75.3046L683.366 75.3046L686.519 64.001L755.755 64.001ZM683.134 64.001L679.98 75.3046L616.428 75.3046L612.984 64.001L683.134 64.001ZM609.577 64.001L613.021 75.3046L550.488 75.3047L540.445 64.001L609.577 64.001ZM536.123 64.001L546.167 75.3047L483.726 75.3047L467.094 64.001L536.123 64.001ZM461.349 64.001L477.981 75.3047L417.012 75.3047L393.691 64.001L461.349 64.001ZM303.168 60.7314L264.687 46.0284L189.219 46.0284L235.511 60.7315L303.168 60.7314ZM156.565 60.7315L224.71 60.7315L178.418 46.0284L102.382 46.0284L156.565 60.7315ZM144.08 60.7315L89.897 46.0284L16.4521 46.0284L78.4812 60.7315L144.08 60.7315ZM64.3054 60.7315L2.27637 46.0284L-69.7896 46.0285L0.149658 60.7315L64.3054 60.7315ZM-15.7429 60.7315L-85.6821 46.0285L-156.459 46.0285L-78.5215 60.7315L-15.7429 60.7315ZM-96.1584 60.7315L-174.096 46.0285H-242.186L-156.422 60.7315L-96.1584 60.7315ZM-175.772 60.7315L-261.536 46.0285L-329.263 46.0285L-235.351 60.7315L-175.772 60.7315ZM-256.489 60.7315L-350.401 46.0285L-415.378 46.0285L-313.615 60.7315L-256.489 60.7315ZM-336.479 60.7315L-438.243 46.0285H-502.355L-392.542 60.7315L-336.479 60.7315ZM-417.18 60.7315L-526.993 46.0285H-590.008L-472.082 60.7315L-417.18 60.7315ZM-498.509 60.7315L-616.434 46.0285L-677.074 46.0285L-551.046 60.7315L-498.509 60.7315ZM-579.262 60.7315L-705.29 46.0285L-761.969 46.0285L-628.191 60.7315L-579.262 60.7315ZM-658.119 60.7315L-791.897 46.0285H-850.292L-708.226 60.7315L-658.119 60.7315ZM-739.986 60.7315L-882.053 46.0285L-958.597 46.0285L-813.598 60.7315L-739.986 60.7315ZM-846.008 60.7315L-991.007 46.0285L-1045.12 46.0285L-892.17 60.7316L-846.008 60.7315ZM2156.38 60.7313L2313.77 46.0282L2260.68 46.0282L2111.49 60.7313L2156.38 60.7313ZM2078.15 60.7313L2227.34 46.0282L2172.19 46.0283L2031.06 60.7313L2078.15 60.7313ZM1999.51 60.7313L2140.64 46.0283L2086.8 46.0283L1953.13 60.7313L1999.51 60.7313ZM1923.23 60.7313L2056.89 46.0283L1997.27 46.0283L1871.87 60.7313L1923.23 60.7313ZM1843.79 60.7313L1969.19 46.0283L1908.88 46.0283L1791.52 60.7313L1843.79 60.7313ZM1765.22 60.7313L1882.58 46.0283L1822.54 46.0283L1712.83 60.7313L1765.22 60.7313ZM1688.22 60.7313L1797.93 46.0283L1734.44 46.0283L1632.72 60.7313L1688.22 60.7313ZM1609.86 60.7313L1711.58 46.0283L1642.58 46.0283L1550.39 60.7313L1609.86 60.7313ZM1529.63 60.7313L1621.82 46.0283L1558.01 46.0283L1472.1 60.7313L1529.63 60.7313ZM1452.71 60.7313L1538.63 46.0283L1469.44 46.0283L1391.54 60.7314L1452.71 60.7313ZM1373.92 60.7314L1451.81 46.0283L1386.17 46.0283L1316.83 60.7314L1373.92 60.7314ZM1301.06 60.7314L1370.41 46.0283L1299.44 46.0283L1237.69 60.7314L1301.06 60.7314ZM1223.58 60.7314L1285.33 46.0283L1210.68 46.0283L1156.91 60.7314L1223.58 60.7314ZM1144.51 60.7314L1198.29 46.0283L1116.57 46.0283L1070.01 60.7314L1144.51 60.7314ZM1059.22 60.7314L1105.77 46.0283L1027.61 46.0284L989.199 60.7314L1059.22 60.7314ZM980.119 60.7314L1018.53 46.0284L943.572 46.0284L913.742 60.7314L980.119 60.7314ZM906.418 60.7314L936.249 46.0284L859.531 46.0284L838.27 60.7314L906.418 60.7314ZM832.592 60.7314L853.854 46.0284L775.523 46.0284L762.842 60.7314L832.592 60.7314ZM758.575 60.7314L771.256 46.0284L691.533 46.0284L687.431 60.7314L758.575 60.7314ZM684.046 60.7314L688.147 46.0284L607.508 46.0284L611.988 60.7314L684.046 60.7314ZM608.581 60.7314L604.101 46.0284L524.475 46.0284L537.54 60.7314L608.581 60.7314ZM533.218 60.7314L520.154 46.0284L440.651 46.0284L462.284 60.7314L533.218 60.7314ZM456.539 60.7314L434.905 46.0284L356.609 46.0284L386.945 60.7314L456.539 60.7314ZM178.925 42.7588L256.13 42.7588L208.734 24.6493L121.908 24.6493L178.925 42.7588ZM111.107 24.6493L168.124 42.7588L90.3328 42.7588L23.5962 24.6493L111.107 24.6493ZM11.1113 24.6493L77.8479 42.7588L2.6582 42.7588L-73.7422 24.6493L11.1113 24.6493ZM-87.918 24.6493L-11.5176 42.7588L-85.3423 42.7588L-171.485 24.6493L-87.918 24.6493ZM-187.378 24.6493L-101.235 42.7589L-173.791 42.7589L-269.785 24.6493H-187.378ZM-287.422 24.6493L-191.427 42.7589H-261.258L-366.893 24.6493H-287.422ZM-386.242 24.6493L-280.608 42.7589L-350.147 42.7589L-465.818 24.6493L-386.242 24.6493ZM-486.956 24.6493L-371.285 42.7589L-438.008 42.7589L-563.348 24.6493L-486.956 24.6493ZM-586.213 24.6493L-460.872 42.7589L-526.775 42.7589L-662.03 24.6493L-586.213 24.6493ZM-686.668 24.6493L-551.412 42.7589L-616.231 42.7589L-761.479 24.6493L-686.668 24.6493ZM-787.906 24.6493L-642.658 42.7589L-705.1 42.7589L-860.329 24.6493L-787.906 24.6493ZM-888.544 24.6493L-733.316 42.7589L-791.718 42.7589L-956.49 24.6493H-888.544ZM-986.419 24.6493L-821.646 42.7589L-881.885 42.7589L-1056.87 24.6493H-986.419ZM-1088.63 24.6493L-913.646 42.7589L-990.841 42.7589L-1169.44 24.6493H-1088.63ZM-1201.85 24.6493L-1023.25 42.7589L-1079.13 42.7589H-1079.17L-1267.52 24.6493L-1201.85 24.6493ZM2542.62 24.6493L2348.77 42.7586L2293.86 42.7586L2477.61 24.6493L2542.62 24.6493ZM2444.27 24.6493L2260.52 42.7586L2203.58 42.7586L2377.4 24.6493L2444.27 24.6493ZM2345.85 24.6493L2172.02 42.7586L2116.52 42.7587L2281.15 24.6493H2345.85ZM2251.24 24.6493L2086.62 42.7587L2025.16 42.7587L2179.61 24.6493H2251.24ZM2151.53 24.6493L1997.08 42.7587L1934.98 42.7587L2079.52 24.6493H2151.53ZM2053.22 24.6493L1908.68 42.7587L1846.94 42.7587L1982.07 24.6493L2053.22 24.6493ZM1957.45 24.6493L1822.33 42.7587L1757.06 42.7587L1882.34 24.6493L1957.45 24.6493ZM1859.49 24.6493L1734.2 42.7587L1663.08 42.7587L1776.62 24.6493L1859.49 24.6493ZM1755.86 24.6493L1642.32 42.7587L1577.11 42.7587L1682.93 24.6493L1755.86 24.6493ZM1663.55 24.6493L1557.73 42.7587L1486.76 42.7587L1582.7 24.6493H1663.55ZM1565.07 24.6493L1469.13 42.7587L1401.59 42.7587L1487 24.6493H1565.07ZM1471.23 24.6493L1385.83 42.7587L1313.17 42.7587L1389.23 24.6493L1471.23 24.6493ZM1375.11 24.6493L1299.06 42.7587L1222.64 42.7587L1288.88 24.6493L1375.11 24.6493ZM1276.48 24.6493L1210.25 42.7587L1126.92 42.7587L1184.26 24.6493L1276.48 24.6493ZM1173.46 24.6493L1116.12 42.7587L1036.15 42.7587L1083.46 24.6493L1173.46 24.6493ZM1074.38 24.6493L1027.07 42.7587L950.205 42.7588L986.946 24.6493L1074.38 24.6493ZM979.623 24.6493L942.882 42.7588L864.259 42.7588L890.447 24.6493H979.623ZM884.769 24.6493L858.582 42.7588L778.343 42.7588L793.962 24.6493H884.769ZM789.695 24.6493L774.076 42.7588L692.445 42.7588L697.497 24.6493L789.695 24.6493ZM694.111 24.6493L689.06 42.7588L606.512 42.7588L600.994 24.6493L694.111 24.6493ZM597.587 24.6493L603.104 42.7588L521.57 42.7588L505.479 24.6493L597.587 24.6493ZM501.157 24.6493L517.249 42.7588L435.84 42.7588L409.195 24.6493L501.157 24.6493ZM403.449 24.6493L430.094 42.7588L349.864 42.7588L312.5 24.6493H403.449ZM200.177 21.3797L149.599 2.05464L50.77 2.05464L111.614 21.3797L200.177 21.3797ZM100.813 21.3797L39.9688 2.05464L-59.6689 2.05464L11.5471 21.3797L100.813 21.3797ZM-0.937744 21.3797L-72.1541 2.05464L-169.065 2.05464L-87.5359 21.3797L-0.937744 21.3797ZM-101.712 21.3797L-183.24 2.05464L-278.963 2.05464L-187.038 21.3797L-101.712 21.3797ZM-202.931 21.3797L-294.856 2.05464H-389.554L-287.116 21.3797L-202.931 21.3797ZM-304.753 21.3797L-407.191 2.05464H-498.689L-385.964 21.3797H-304.753ZM-405.314 21.3797L-518.039 2.05464H-610.136L-486.702 21.3797H-405.314ZM-507.84 21.3797L-631.275 2.05464H-719.731L-585.978 21.3797H-507.84ZM-608.843 21.3797L-742.596 2.05464H-830.784L-686.45 21.3797L-608.843 21.3797ZM-711.088 21.3797L-855.421 2.05464H-942.699L-787.703 21.3797L-711.088 21.3797ZM-814.129 21.3797L-969.126 2.05464L-1054 2.05464L-888.354 21.3797L-814.129 21.3797ZM-916.57 21.3797L-1082.22 2.05464L-1162.07 2.05464L-986.24 21.3797L-916.57 21.3797ZM-1016.17 21.3797L-1192 2.05464L-1275.19 2.05464L-1088.46 21.3797L-1016.17 21.3797ZM-1120.22 21.3797L-1306.95 2.05464L-1392.26 2.05464L-1201.68 21.3797H-1120.22ZM-1234.09 21.3797L-1424.67 2.05464L-1502.56 2.05464L-1301.53 21.3797H-1234.09ZM2577.62 21.3797L2784.48 2.05464L2706.88 2.05464L2510.79 21.3797H2577.62ZM2477.45 21.3797L2673.54 2.05464L2594.28 2.05464L2408.79 21.3797H2477.45ZM2377.23 21.3797L2562.73 2.05464L2486.55 2.05464L2310.87 21.3797H2377.23ZM2280.97 21.3797L2456.65 2.05464L2372.32 2.05464L2207.5 21.3797L2280.97 21.3797ZM2179.42 21.3797L2344.24 2.05464L2259.87 2.05464L2105.62 21.3797L2179.42 21.3797ZM2079.32 21.3797L2233.57 2.05464L2150.67 2.05464L2006.47 21.3797L2079.32 21.3797ZM1981.85 21.3797L2126.05 2.05464L2038.66 2.05464L1904.96 21.3797L1981.85 21.3797ZM1882.11 21.3797L2015.8 2.05464L1918.28 2.05464L1797.12 21.3797L1882.11 21.3797ZM1776.36 21.3797L1897.52 2.05464H1814.95L1702.03 21.3797H1776.36ZM1682.65 21.3797L1795.57 2.05464H1702.41L1600.02 21.3797H1682.65ZM1582.4 21.3797L1684.78 2.05464H1593.56L1502.42 21.3797L1582.4 21.3797ZM1486.65 21.3797L1577.8 2.05464H1484.12L1402.96 21.3797L1486.65 21.3797ZM1388.85 21.3797L1470.01 2.05464L1371.51 2.05464L1300.83 21.3797L1388.85 21.3797ZM1288.44 21.3797L1359.12 2.05464L1255.8 2.05464L1194.61 21.3797L1288.44 21.3797ZM1183.82 21.3797L1245.01 2.05464L1142.49 2.05464L1092.01 21.3797L1183.82 21.3797ZM1082.93 21.3797L1133.41 2.05464L1032.79 2.05464L993.58 21.3797L1082.93 21.3797ZM986.256 21.3797L1025.46 2.05464L923.12 2.05464L895.175 21.3797H986.256ZM889.497 21.3797L917.442 2.05464L813.449 2.05464L796.781 21.3797L889.497 21.3797ZM792.515 21.3797L809.182 2.05464L703.8 2.05464L698.409 21.3797L792.515 21.3797ZM695.023 21.3797L700.414 2.05464L594.11 2.05464L599.998 21.3797L695.023 21.3797ZM596.59 21.3797L590.702 2.05464L485.403 2.05464L502.574 21.3797L596.59 21.3797ZM498.252 21.3797L481.081 2.05464L375.95 2.05464L404.384 21.3797L498.252 21.3797ZM398.638 21.3797L370.205 2.05464L265.882 2.05464L305.754 21.3797H398.638ZM150.135 -1.21497L251.711 -1.21497L198.506 -27.0023L199.053 -27.8184H80.5085L150.135 -1.21497ZM71.6519 -27.7277L141.041 -1.21497L40.4758 -1.21497L-43.2839 -27.8184L71.6997 -27.8184L71.6519 -27.7277ZM-54.0852 -27.8184L29.6746 -1.21497L-71.718 -1.21497L-169.756 -27.8184H-54.0852ZM-182.241 -27.8184L-84.2031 -1.21497L-182.858 -1.21497L-295.093 -27.8184L-182.241 -27.8184ZM-309.269 -27.8184L-197.034 -1.21497L-294.516 -1.21497L-421.063 -27.8184H-309.269ZM-436.956 -27.8184L-310.409 -1.21497L-406.885 -1.21497L-547.904 -27.8184L-436.956 -27.8184ZM-565.541 -27.8184L-424.522 -1.21497L-517.761 -1.21497L-672.941 -27.8184H-565.541ZM-692.291 -27.8184L-537.111 -1.21497L-631.02 -1.21497L-800.944 -27.8184H-692.291ZM-822.083 -27.8184L-652.159 -1.21497L-742.361 -1.21497L-926.49 -27.8184L-822.083 -27.8184ZM-949.355 -27.8184L-765.226 -1.21497H-855.204L-1053.9 -27.8184H-949.355ZM-1078.53 -27.8184L-879.841 -1.21497H-968.923L-1182.3 -27.8184L-1078.53 -27.8184ZM-1208.72 -27.8184L-995.349 -1.21497H-1082.03L-1310.06 -27.8184H-1208.72ZM-1338.28 -27.8184L-1110.24 -1.21497H-1191.82L-1433.88 -27.8184L-1338.28 -27.8184ZM-1463.8 -27.8184L-1221.75 -1.21497H-1306.78L-1563.83 -27.8184H-1463.8ZM-1595.33 -27.7914L-1338.54 -1.21497H-1424.51L-1686.86 -27.8184L-1595.33 -27.8184L-1595.33 -27.7914ZM-1719.27 -27.8184L-1456.92 -1.21497H-1536.57L-1813.32 -27.8184H-1719.27ZM3104.26 -27.8184L2819.48 -1.21497L2740.05 -1.21497L3010 -27.8184L3104.26 -27.8184ZM2976.66 -27.8184L2706.72 -1.21497L2625.67 -1.21497L2881.03 -27.8184H2976.66ZM2849.47 -27.8184L2594.11 -1.21497H2516.28L2758.12 -27.8184L2849.47 -27.8184ZM2728.22 -27.8184L2486.37 -1.21497H2400.21L2627.1 -27.8184H2728.22ZM2599.03 -27.8184L2372.13 -1.21497H2285.97L2498.31 -27.8184L2599.03 -27.8184ZM2472.01 -27.8184L2259.66 -1.21497H2175.06L2373.57 -27.8184H2472.01ZM2348.96 -27.8184L2150.45 -1.21497H2061.28L2245.33 -27.8184L2348.96 -27.8184ZM2222.47 -27.8184L2038.42 -1.21497H1938.78L2105.58 -27.8184H2222.47ZM2084.82 -27.8184L1918.02 -1.21497H1834.06L1989.51 -27.8184H2084.82ZM1970.12 -27.8184L1814.68 -1.21497L1719.73 -1.21497L1860.67 -27.8184L1970.12 -27.8184ZM1843.04 -27.8184L1702.1 -1.21497L1608.98 -1.21497L1734.45 -27.8184H1843.04ZM1718.68 -27.8184L1593.22 -1.21497L1497.85 -1.21497L1609.58 -27.8184L1718.68 -27.8184ZM1595.47 -27.8184L1483.74 -1.21497L1383.47 -1.21497L1480.77 -27.8184H1595.47ZM1468.37 -27.8184L1371.08 -1.21497L1266.15 -1.21497L1350.39 -27.8184L1468.37 -27.8184ZM1339.59 -27.8184L1255.36 -1.21497L1151.03 -1.21497L1220.54 -27.8184H1339.59ZM1211.46 -27.8184L1141.95 -1.21497L1039.42 -1.21497L1093.39 -27.8184L1211.46 -27.8184ZM1086.07 -27.8184L1032.1 -1.21497L927.848 -1.21497L966.318 -27.8184H1086.07ZM960.641 -27.8184L922.17 -1.21497L816.269 -1.21497L839.214 -27.8184L960.641 -27.8184ZM834.947 -27.8184L812.002 -1.21497L704.712 -1.21497L712.133 -27.8184H834.947ZM708.748 -27.8184L701.326 -1.21497L593.113 -1.21497L585.007 -27.8184H708.748ZM581.6 -27.8184L589.706 -1.21497L482.498 -1.21497L458.86 -27.8184L581.6 -27.8184ZM454.538 -27.8184L478.176 -1.21497L371.139 -1.21497L331.996 -27.8184H454.538Z" fill="url(#paint0_linear_1294_8)"/>
<defs>
<linearGradient id="paint0_linear_1294_8" x1="648" y1="123" x2="648" y2="-32.4201" gradientUnits="userSpaceOnUse">
<stop offset="0.0989583" stop-color="#2F5478" stop-opacity="0"/>
<stop offset="1" stop-color="#3D6C99"/>
</linearGradient>
</defs>
</svg>
